G04 #@! TF.FileFunction,Copper,L2,Bot,Signal*
%FSLAX46Y46*%
G04 Gerber Fmt 4.6, Leading zero omitted, Abs format (unit mm)*
G04 Created by KiCad (PCBNEW 0.201507042246+5884~23~ubuntu14.04.1-product) date Wed 08 Jul 2015 10:22:00 AM CEST*
%MOMM*%
G01*
G04 APERTURE LIST*
%ADD10C,0.100000*%
%ADD11R,1.200000X0.900000*%
%ADD12R,0.900000X1.200000*%
%ADD13O,3.000000X1.727200*%
%ADD14R,3.000000X1.727200*%
%ADD15C,1.000000*%
%ADD16R,0.750000X1.200000*%
%ADD17R,1.727200X1.727200*%
%ADD18O,1.727200X1.727200*%
%ADD19O,1.727200X3.000000*%
%ADD20R,1.727200X3.000000*%
%ADD21R,0.800000X0.600000*%
%ADD22O,1.501140X0.899160*%
%ADD23C,2.499360*%
%ADD24C,0.600000*%
%ADD25C,0.500000*%
%ADD26C,0.250000*%
%ADD27C,0.254000*%
G04 APERTURE END LIST*
D10*
D11*
X140300000Y-134400000D03*
X138100000Y-134400000D03*
D12*
X138300000Y-137400000D03*
X138300000Y-139600000D03*
X110000000Y-126900000D03*
X110000000Y-124700000D03*
D13*
X144100000Y-130800000D03*
D14*
X144100000Y-128260000D03*
X144100000Y-125720000D03*
D15*
X138200000Y-132000000D03*
X140400000Y-132000000D03*
X130200000Y-142200000D03*
X127800000Y-142100000D03*
D16*
X153300000Y-138150000D03*
X153300000Y-140050000D03*
X141000000Y-137550000D03*
X141000000Y-139450000D03*
X119700000Y-124750000D03*
X119700000Y-126650000D03*
D12*
X144100000Y-138700000D03*
X144100000Y-140900000D03*
D15*
X135300000Y-137000000D03*
X131500000Y-134300000D03*
X129600000Y-134300000D03*
D17*
X115300000Y-139400000D03*
D18*
X115300000Y-141940000D03*
X117840000Y-139400000D03*
X117840000Y-141940000D03*
X120380000Y-139400000D03*
X120380000Y-141940000D03*
D19*
X135100000Y-130700000D03*
D20*
X132560000Y-130700000D03*
X130020000Y-130700000D03*
D21*
X151700000Y-137350000D03*
X145900000Y-137350000D03*
X151700000Y-141050000D03*
X145900000Y-141050000D03*
X117800000Y-123850000D03*
X112000000Y-123850000D03*
X117800000Y-127550000D03*
X112000000Y-127550000D03*
D22*
X122600000Y-130030000D03*
X122600000Y-128760000D03*
X122600000Y-131300000D03*
D23*
X151000000Y-122100000D03*
D24*
X128211700Y-131625300D03*
X142417200Y-140877300D03*
X126292900Y-136034100D03*
X132395900Y-127909100D03*
X135692200Y-128711100D03*
X136977300Y-131871600D03*
X136176400Y-132189400D03*
X131525000Y-132728600D03*
X130255000Y-132749600D03*
X127738500Y-140899300D03*
X130211300Y-141093700D03*
X136158500Y-137584300D03*
X135513700Y-138122000D03*
X118483500Y-137706100D03*
X132953500Y-128669800D03*
D25*
X118650300Y-126874400D02*
X118874700Y-126650000D01*
X118650300Y-127550000D02*
X118650300Y-126874400D01*
X119700000Y-126650000D02*
X118874700Y-126650000D01*
X144100000Y-130800000D02*
X145900000Y-130800000D01*
X152550300Y-137400300D02*
X153300000Y-138150000D01*
X152550300Y-137350000D02*
X152550300Y-137400300D01*
X151700000Y-137350000D02*
X152550300Y-137350000D01*
X141000000Y-139450000D02*
X141825300Y-139450000D01*
X145900000Y-137350000D02*
X145900000Y-130800000D01*
X117800000Y-127550000D02*
X118650300Y-127550000D01*
X143719000Y-137350000D02*
X145900000Y-137350000D01*
X141825300Y-139243700D02*
X143719000Y-137350000D01*
X141825300Y-139450000D02*
X141825300Y-139243700D01*
X145900000Y-137350000D02*
X151700000Y-137350000D01*
X112000000Y-127550000D02*
X117800000Y-127550000D01*
X135100000Y-130700000D02*
X135100000Y-132650300D01*
X151000000Y-125700000D02*
X145900000Y-130800000D01*
X151000000Y-122100000D02*
X151000000Y-125700000D01*
X141000000Y-139450000D02*
X140174700Y-139450000D01*
X123236400Y-126650000D02*
X119700000Y-126650000D01*
X128211700Y-131625300D02*
X123236400Y-126650000D01*
X132475300Y-136254200D02*
X132475300Y-135275000D01*
X135120700Y-138899600D02*
X132475300Y-136254200D01*
X136405300Y-138899600D02*
X135120700Y-138899600D01*
X136779500Y-138525400D02*
X136405300Y-138899600D01*
X139250100Y-138525400D02*
X136779500Y-138525400D01*
X140174700Y-139450000D02*
X139250100Y-138525400D01*
X132475300Y-135275000D02*
X135100000Y-132650300D01*
X120380000Y-141940000D02*
X121693900Y-141940000D01*
X121693900Y-141888900D02*
X128307800Y-135275000D01*
X121693900Y-141940000D02*
X121693900Y-141888900D01*
X132475300Y-135275000D02*
X128307800Y-135275000D01*
X128211700Y-135178900D02*
X128211700Y-131625300D01*
X128307800Y-135275000D02*
X128211700Y-135178900D01*
X138300000Y-139600000D02*
X139200300Y-139600000D01*
X142417200Y-140500300D02*
X142417200Y-140877300D01*
X142417200Y-140382800D02*
X142417200Y-140500300D01*
X144100000Y-138700000D02*
X142417200Y-140382800D01*
X140100600Y-140500300D02*
X139200300Y-139600000D01*
X142417200Y-140500300D02*
X140100600Y-140500300D01*
X116641000Y-143281000D02*
X115300000Y-141940000D01*
X133718700Y-143281000D02*
X116641000Y-143281000D01*
X137399700Y-139600000D02*
X133718700Y-143281000D01*
X110000000Y-136640000D02*
X110000000Y-126900000D01*
X115300000Y-141940000D02*
X110000000Y-136640000D01*
X138300000Y-139600000D02*
X137399700Y-139600000D01*
D26*
X110000000Y-124700000D02*
X110662500Y-124700000D01*
X120380000Y-139400000D02*
X120380000Y-138212100D01*
X112000000Y-123850000D02*
X112000000Y-124474300D01*
X117800000Y-123850000D02*
X117800000Y-123928000D01*
X112000000Y-123850000D02*
X112724300Y-123850000D01*
X111638000Y-124474300D02*
X111093300Y-125019000D01*
X112000000Y-124474300D02*
X111638000Y-124474300D01*
X110774300Y-124700000D02*
X111093300Y-125019000D01*
X110662500Y-124700000D02*
X110774300Y-124700000D01*
X112802300Y-123928000D02*
X117800000Y-123928000D01*
X112724300Y-123850000D02*
X112802300Y-123928000D01*
X118178700Y-123928000D02*
X119000700Y-124750000D01*
X117800000Y-123928000D02*
X118178700Y-123928000D01*
X119700000Y-124750000D02*
X119000700Y-124750000D01*
X120380000Y-136826200D02*
X120380000Y-138212100D01*
X120052300Y-136826200D02*
X120380000Y-136826200D01*
X111093300Y-127867200D02*
X120052300Y-136826200D01*
X111093300Y-125019000D02*
X111093300Y-127867200D01*
X125500800Y-136826200D02*
X126292900Y-136034100D01*
X120380000Y-136826200D02*
X125500800Y-136826200D01*
X131429300Y-128875700D02*
X132395900Y-127909100D01*
X130020000Y-128875700D02*
X131429300Y-128875700D01*
X130020000Y-130700000D02*
X130020000Y-128875700D01*
X134763300Y-128711100D02*
X135692200Y-128711100D01*
X133747900Y-129726500D02*
X134763300Y-128711100D01*
X133747900Y-130700000D02*
X133747900Y-129726500D01*
X132560000Y-130700000D02*
X133747900Y-130700000D01*
X137105700Y-132000000D02*
X136977300Y-131871600D01*
X138200000Y-132000000D02*
X137105700Y-132000000D01*
X139547600Y-132852400D02*
X140400000Y-132000000D01*
X136839400Y-132852400D02*
X139547600Y-132852400D01*
X136176400Y-132189400D02*
X136839400Y-132852400D01*
X131500000Y-132753600D02*
X131525000Y-132728600D01*
X131500000Y-134300000D02*
X131500000Y-132753600D01*
X130255000Y-133645000D02*
X130255000Y-132749600D01*
X129600000Y-134300000D02*
X130255000Y-133645000D01*
X127738500Y-142038500D02*
X127738500Y-140899300D01*
X127800000Y-142100000D02*
X127738500Y-142038500D01*
X130200000Y-141105000D02*
X130211300Y-141093700D01*
X130200000Y-142200000D02*
X130200000Y-141105000D01*
X138100000Y-134400000D02*
X138100000Y-135174300D01*
X136158500Y-137115800D02*
X136158500Y-137584300D01*
X138100000Y-135174300D02*
X136158500Y-137115800D01*
X135513700Y-137213700D02*
X135513700Y-138122000D01*
X135300000Y-137000000D02*
X135513700Y-137213700D01*
X115300000Y-139400000D02*
X116487900Y-139400000D01*
X117810600Y-137706100D02*
X118483500Y-137706100D01*
X116487900Y-139028800D02*
X117810600Y-137706100D01*
X116487900Y-139400000D02*
X116487900Y-139028800D01*
D25*
X142129500Y-137245800D02*
X141825300Y-137550000D01*
X142129500Y-130230500D02*
X142129500Y-137245800D01*
X144100000Y-128260000D02*
X142129500Y-130230500D01*
X141000000Y-137550000D02*
X141825300Y-137550000D01*
X140024700Y-137400000D02*
X140174700Y-137550000D01*
X138300000Y-137400000D02*
X140024700Y-137400000D01*
X141000000Y-137550000D02*
X140174700Y-137550000D01*
D26*
X141390400Y-132535300D02*
X140300000Y-133625700D01*
X141390400Y-126605300D02*
X141390400Y-132535300D01*
X142275700Y-125720000D02*
X141390400Y-126605300D01*
X144100000Y-125720000D02*
X142275700Y-125720000D01*
X140300000Y-134400000D02*
X140300000Y-133625700D01*
X144100000Y-140900000D02*
X144874300Y-140900000D01*
X141131400Y-120491900D02*
X132953500Y-128669800D01*
X151637400Y-120491900D02*
X141131400Y-120491900D01*
X154000400Y-122854900D02*
X151637400Y-120491900D01*
X154000400Y-140048900D02*
X154000400Y-122854900D01*
X153999300Y-140050000D02*
X154000400Y-140048900D01*
X153300000Y-140050000D02*
X153999300Y-140050000D01*
X145024300Y-141050000D02*
X145900000Y-141050000D01*
X144874300Y-140900000D02*
X145024300Y-141050000D01*
X145900000Y-141050000D02*
X151700000Y-141050000D01*
X152424300Y-140226400D02*
X152600700Y-140050000D01*
X152424300Y-141050000D02*
X152424300Y-140226400D01*
X151700000Y-141050000D02*
X152424300Y-141050000D01*
X153300000Y-140050000D02*
X152600700Y-140050000D01*
D27*
G36*
X133178688Y-127369810D02*
X132926227Y-127116908D01*
X132582699Y-126974262D01*
X132210733Y-126973938D01*
X131866957Y-127115983D01*
X131603708Y-127378773D01*
X131461062Y-127722301D01*
X131461021Y-127769177D01*
X131114498Y-128115700D01*
X130020000Y-128115700D01*
X129729161Y-128173552D01*
X129482599Y-128338299D01*
X129339435Y-128552560D01*
X129156400Y-128552560D01*
X128914277Y-128599537D01*
X128701473Y-128739327D01*
X128559023Y-128950360D01*
X128508960Y-129200000D01*
X128508960Y-132200000D01*
X128555937Y-132442123D01*
X128695727Y-132654927D01*
X128906760Y-132797377D01*
X129156400Y-132847440D01*
X129319914Y-132847440D01*
X129319838Y-132934767D01*
X129414901Y-133164838D01*
X129375225Y-133164803D01*
X128957914Y-133337233D01*
X128638355Y-133656235D01*
X128465197Y-134073244D01*
X128464803Y-134524775D01*
X128637233Y-134942086D01*
X128956235Y-135261645D01*
X129373244Y-135434803D01*
X129824775Y-135435197D01*
X130242086Y-135262767D01*
X130550257Y-134955133D01*
X130856235Y-135261645D01*
X131273244Y-135434803D01*
X131724775Y-135435197D01*
X132142086Y-135262767D01*
X132461645Y-134943765D01*
X132634803Y-134526756D01*
X132635197Y-134075225D01*
X132462767Y-133657914D01*
X132260000Y-133454793D01*
X132260000Y-133316019D01*
X132317192Y-133258927D01*
X132459838Y-132915399D01*
X132459897Y-132847440D01*
X133423600Y-132847440D01*
X133665723Y-132800463D01*
X133878527Y-132660673D01*
X134020977Y-132449640D01*
X134037089Y-132369295D01*
X134130132Y-132485873D01*
X134643843Y-132769527D01*
X134740974Y-132791358D01*
X134973000Y-132670217D01*
X134973000Y-130827000D01*
X134953000Y-130827000D01*
X134953000Y-130573000D01*
X134973000Y-130573000D01*
X134973000Y-130553000D01*
X135227000Y-130553000D01*
X135227000Y-130573000D01*
X136598600Y-130573000D01*
X136598600Y-129936600D01*
X136435925Y-129372778D01*
X136399070Y-129326600D01*
X136484392Y-129241427D01*
X136627038Y-128897899D01*
X136627362Y-128525933D01*
X136485317Y-128182157D01*
X136222527Y-127918908D01*
X135878999Y-127776262D01*
X135507033Y-127775938D01*
X135163257Y-127917983D01*
X135130082Y-127951100D01*
X134763300Y-127951100D01*
X134742955Y-127955147D01*
X139265013Y-123433089D01*
X149846517Y-123433089D01*
X149975725Y-123725859D01*
X150675883Y-123994071D01*
X151425384Y-123973928D01*
X152024275Y-123725859D01*
X152153483Y-123433089D01*
X151000000Y-122279605D01*
X149846517Y-123433089D01*
X139265013Y-123433089D01*
X141446202Y-121251900D01*
X149306653Y-121251900D01*
X149105929Y-121775883D01*
X149126072Y-122525384D01*
X149374141Y-123124275D01*
X149666911Y-123253483D01*
X150820395Y-122100000D01*
X150806252Y-122085858D01*
X150985858Y-121906252D01*
X151000000Y-121920395D01*
X151014142Y-121906252D01*
X151193748Y-122085858D01*
X151179605Y-122100000D01*
X152333089Y-123253483D01*
X152625859Y-123124275D01*
X152783488Y-122712790D01*
X153240400Y-123169702D01*
X153240400Y-136915000D01*
X153172998Y-136915000D01*
X153172998Y-137073748D01*
X153014250Y-136915000D01*
X152798690Y-136915000D01*
X152735000Y-136941381D01*
X152735000Y-136923690D01*
X152638327Y-136690301D01*
X152459698Y-136511673D01*
X152226309Y-136415000D01*
X151985750Y-136415000D01*
X151827000Y-136573750D01*
X151827000Y-137223000D01*
X151847000Y-137223000D01*
X151847000Y-137477000D01*
X151827000Y-137477000D01*
X151827000Y-138126250D01*
X151985750Y-138285000D01*
X152226309Y-138285000D01*
X152290000Y-138258618D01*
X152290000Y-138277002D01*
X152448748Y-138277002D01*
X152290000Y-138435750D01*
X152290000Y-138876309D01*
X152386673Y-139109698D01*
X152387955Y-139110980D01*
X152327623Y-139200360D01*
X152296217Y-139356968D01*
X152063299Y-139512599D01*
X151886899Y-139688999D01*
X151722152Y-139935561D01*
X151688934Y-140102560D01*
X151300000Y-140102560D01*
X151057877Y-140149537D01*
X150845073Y-140289327D01*
X150844619Y-140290000D01*
X146753158Y-140290000D01*
X146549640Y-140152623D01*
X146300000Y-140102560D01*
X145500000Y-140102560D01*
X145257877Y-140149537D01*
X145178379Y-140201759D01*
X145150463Y-140057877D01*
X145010673Y-139845073D01*
X144944471Y-139800386D01*
X145004927Y-139760673D01*
X145147377Y-139549640D01*
X145197440Y-139300000D01*
X145197440Y-138211994D01*
X145373691Y-138285000D01*
X145614250Y-138285000D01*
X145773000Y-138126250D01*
X145773000Y-137477000D01*
X146027000Y-137477000D01*
X146027000Y-138126250D01*
X146185750Y-138285000D01*
X146426309Y-138285000D01*
X146659698Y-138188327D01*
X146838327Y-138009699D01*
X146935000Y-137776310D01*
X146935000Y-137635750D01*
X146776250Y-137477000D01*
X150823750Y-137477000D01*
X150665000Y-137635750D01*
X150665000Y-137776310D01*
X150761673Y-138009699D01*
X150940302Y-138188327D01*
X151173691Y-138285000D01*
X151414250Y-138285000D01*
X151573000Y-138126250D01*
X151573000Y-137477000D01*
X150823750Y-137477000D01*
X146776250Y-137477000D01*
X146776250Y-137477000D01*
X146027000Y-137477000D01*
X145773000Y-137477000D01*
X145773000Y-137477000D01*
X145023750Y-137477000D01*
X144918139Y-137582611D01*
X144799640Y-137502623D01*
X144550000Y-137452560D01*
X143650000Y-137452560D01*
X143407877Y-137499537D01*
X143195073Y-137639327D01*
X143052623Y-137850360D01*
X143002560Y-138100000D01*
X143002560Y-138545861D01*
X141933120Y-139615300D01*
X141889550Y-139615300D01*
X141851250Y-139577000D01*
X141127000Y-139577000D01*
X141127000Y-139597000D01*
X140873000Y-139597000D01*
X140873000Y-139577000D01*
X140853000Y-139577000D01*
X140853000Y-139323000D01*
X140873000Y-139323000D01*
X140873000Y-139303000D01*
X141127000Y-139303000D01*
X141127000Y-139323000D01*
X141851250Y-139323000D01*
X142010000Y-139164250D01*
X142010000Y-138723691D01*
X141913327Y-138490302D01*
X141912045Y-138489020D01*
X141967617Y-138406692D01*
X142119438Y-138376492D01*
X142163975Y-138367633D01*
X142451090Y-138175790D01*
X142451091Y-138175789D01*
X142755287Y-137871592D01*
X142755290Y-137871590D01*
X142947133Y-137584475D01*
X142963033Y-137504539D01*
X143014501Y-137245800D01*
X143014500Y-137245795D01*
X143014500Y-136415000D01*
X145373691Y-136415000D01*
X145140302Y-136511673D01*
X144961673Y-136690301D01*
X144865000Y-136923690D01*
X144865000Y-137064250D01*
X145023750Y-137223000D01*
X145773000Y-137223000D01*
X145773000Y-136573750D01*
X145614250Y-136415000D01*
X146185750Y-136415000D01*
X146027000Y-136573750D01*
X146027000Y-137223000D01*
X146776250Y-137223000D01*
X146935000Y-137064250D01*
X146935000Y-136923690D01*
X146838327Y-136690301D01*
X146659698Y-136511673D01*
X146426309Y-136415000D01*
X151173691Y-136415000D01*
X150940302Y-136511673D01*
X150761673Y-136690301D01*
X150665000Y-136923690D01*
X150665000Y-137064250D01*
X150823750Y-137223000D01*
X151573000Y-137223000D01*
X151573000Y-136573750D01*
X151414250Y-136415000D01*
X151173691Y-136415000D01*
X146426309Y-136415000D01*
X146426309Y-136415000D01*
X146185750Y-136415000D01*
X145614250Y-136415000D01*
X145614250Y-136415000D01*
X145373691Y-136415000D01*
X143014500Y-136415000D01*
X143014500Y-132205667D01*
X143336600Y-132298600D01*
X143973000Y-132298600D01*
X143973000Y-130927000D01*
X144227000Y-130927000D01*
X144227000Y-132298600D01*
X144863400Y-132298600D01*
X145427222Y-132135925D01*
X145885873Y-131769868D01*
X146169527Y-131256157D01*
X146191358Y-131159026D01*
X146070217Y-130927000D01*
X144227000Y-130927000D01*
X143973000Y-130927000D01*
X143973000Y-130927000D01*
X143953000Y-130927000D01*
X143953000Y-130673000D01*
X143973000Y-130673000D01*
X143973000Y-130653000D01*
X144227000Y-130653000D01*
X144227000Y-130673000D01*
X146070217Y-130673000D01*
X146191358Y-130440974D01*
X146169527Y-130343843D01*
X145885873Y-129830132D01*
X145770408Y-129737977D01*
X145842123Y-129724063D01*
X146054927Y-129584273D01*
X146197377Y-129373240D01*
X146247440Y-129123600D01*
X146247440Y-127396400D01*
X146200463Y-127154277D01*
X146092063Y-126989258D01*
X146197377Y-126833240D01*
X146247440Y-126583600D01*
X146247440Y-124856400D01*
X146200463Y-124614277D01*
X146060673Y-124401473D01*
X145849640Y-124259023D01*
X145600000Y-124208960D01*
X142600000Y-124208960D01*
X142357877Y-124255937D01*
X142145073Y-124395727D01*
X142002623Y-124606760D01*
X141952560Y-124856400D01*
X141952560Y-125039434D01*
X141738299Y-125182599D01*
X140852999Y-126067899D01*
X140688252Y-126314461D01*
X140630400Y-126605300D01*
X140630400Y-130866710D01*
X140626756Y-130865197D01*
X140175225Y-130864803D01*
X139757914Y-131037233D01*
X139438355Y-131356235D01*
X139299873Y-131689735D01*
X139162767Y-131357914D01*
X138843765Y-131038355D01*
X138426756Y-130865197D01*
X137975225Y-130864803D01*
X137557914Y-131037233D01*
X137511639Y-131083427D01*
X137507627Y-131079408D01*
X137164099Y-130936762D01*
X136792133Y-130936438D01*
X136598600Y-131016404D01*
X136598600Y-130827000D01*
X135227000Y-130827000D01*
X135227000Y-132670217D01*
X135453063Y-132788245D01*
X135646073Y-132981592D01*
X135989601Y-133124238D01*
X136036477Y-133124279D01*
X136301999Y-133389801D01*
X136548561Y-133554548D01*
X136839400Y-133612400D01*
X136961997Y-133612400D01*
X136902623Y-133700360D01*
X136852560Y-133950000D01*
X136852560Y-134850000D01*
X136899537Y-135092123D01*
X136981937Y-135217561D01*
X136052359Y-136147139D01*
X135943765Y-136038355D01*
X135526756Y-135865197D01*
X135075225Y-135864803D01*
X134657914Y-136037233D01*
X134338355Y-136356235D01*
X134165197Y-136773244D01*
X134164803Y-137224775D01*
X134337233Y-137642086D01*
X134593837Y-137899138D01*
X134578862Y-137935201D01*
X134578538Y-138307167D01*
X134720583Y-138650943D01*
X134983373Y-138914192D01*
X135326901Y-139056838D01*
X135698867Y-139057162D01*
X136042643Y-138915117D01*
X136305892Y-138652327D01*
X136364665Y-138510786D01*
X136687443Y-138377417D01*
X136950692Y-138114627D01*
X137093338Y-137771099D01*
X137093662Y-137399133D01*
X137051649Y-137297453D01*
X137202560Y-137146542D01*
X137202560Y-138000000D01*
X137249537Y-138242123D01*
X137389327Y-138454927D01*
X137455529Y-138499614D01*
X137395073Y-138539327D01*
X137257383Y-138743308D01*
X137061025Y-138782367D01*
X136773910Y-138974210D01*
X136773908Y-138974213D01*
X133352120Y-142396000D01*
X131334830Y-142396000D01*
X131335197Y-141975225D01*
X131162767Y-141557914D01*
X131069670Y-141464654D01*
X131146138Y-141280499D01*
X131146462Y-140908533D01*
X131004417Y-140564757D01*
X130741627Y-140301508D01*
X130398099Y-140158862D01*
X130026133Y-140158538D01*
X129682357Y-140300583D01*
X129419108Y-140563373D01*
X129276462Y-140906901D01*
X129276138Y-141278867D01*
X129346243Y-141448535D01*
X129238355Y-141556235D01*
X129065197Y-141973244D01*
X129064828Y-142396000D01*
X128906050Y-142396000D01*
X128934803Y-142326756D01*
X128935197Y-141875225D01*
X128762767Y-141457914D01*
X128590573Y-141285419D01*
X128673338Y-141086099D01*
X128673662Y-140714133D01*
X128531617Y-140370357D01*
X128268827Y-140107108D01*
X127925299Y-139964462D01*
X127553333Y-139964138D01*
X127209557Y-140106183D01*
X126946308Y-140368973D01*
X126803662Y-140712501D01*
X126803338Y-141084467D01*
X126922317Y-141372419D01*
X126838355Y-141456235D01*
X126665197Y-141873244D01*
X126664803Y-142324775D01*
X126694233Y-142396000D01*
X121794792Y-142396000D01*
X121834958Y-142299026D01*
X121713817Y-142067000D01*
X120507000Y-142067000D01*
X120507000Y-142087000D01*
X120253000Y-142087000D01*
X120253000Y-142067000D01*
X120233000Y-142067000D01*
X120233000Y-141813000D01*
X120253000Y-141813000D01*
X120253000Y-141793000D01*
X120507000Y-141793000D01*
X120507000Y-141813000D01*
X121713817Y-141813000D01*
X121834958Y-141580974D01*
X121662688Y-141165053D01*
X121268490Y-140733179D01*
X121145772Y-140675664D01*
X121469029Y-140459670D01*
X121793885Y-139973489D01*
X121907959Y-139400000D01*
X121793885Y-138826511D01*
X121469029Y-138340330D01*
X121140000Y-138120480D01*
X121140000Y-137586200D01*
X125500800Y-137586200D01*
X125791639Y-137528348D01*
X126038201Y-137363601D01*
X126432580Y-136969222D01*
X126478067Y-136969262D01*
X126821843Y-136827217D01*
X127085092Y-136564427D01*
X127227738Y-136220899D01*
X127228062Y-135848933D01*
X127086017Y-135505157D01*
X126823227Y-135241908D01*
X126479699Y-135099262D01*
X126107733Y-135098938D01*
X125763957Y-135240983D01*
X125500708Y-135503773D01*
X125358062Y-135847301D01*
X125358021Y-135894177D01*
X125185998Y-136066200D01*
X120367102Y-136066200D01*
X113060902Y-128760000D01*
X121187285Y-128760000D01*
X121269844Y-129175051D01*
X121416809Y-129395000D01*
X121269844Y-129614949D01*
X121187285Y-130030000D01*
X121269844Y-130445051D01*
X121416809Y-130665000D01*
X121269844Y-130884949D01*
X121187285Y-131300000D01*
X121269844Y-131715051D01*
X121504951Y-132066914D01*
X121856814Y-132302021D01*
X122271865Y-132384580D01*
X122928135Y-132384580D01*
X123343186Y-132302021D01*
X123695049Y-132066914D01*
X123930156Y-131715051D01*
X124012715Y-131300000D01*
X123930156Y-130884949D01*
X123783191Y-130665000D01*
X123930156Y-130445051D01*
X124012715Y-130030000D01*
X123930156Y-129614949D01*
X123783191Y-129395000D01*
X123930156Y-129175051D01*
X124012715Y-128760000D01*
X123930156Y-128344949D01*
X123695049Y-127993086D01*
X123343186Y-127757979D01*
X122928135Y-127675420D01*
X122271865Y-127675420D01*
X120547605Y-127675420D01*
X120613327Y-127609698D01*
X120710000Y-127376309D01*
X120710000Y-126935750D01*
X120551250Y-126777000D01*
X119827000Y-126777000D01*
X119827000Y-127726250D01*
X119985750Y-127885000D01*
X120201310Y-127885000D01*
X120434699Y-127788327D01*
X120547605Y-127675420D01*
X122271865Y-127675420D01*
X120547605Y-127675420D01*
X120547605Y-127675420D01*
X122271865Y-127675420D01*
X121856814Y-127757979D01*
X121504951Y-127993086D01*
X118828051Y-127993086D01*
X118835000Y-127976310D01*
X118835000Y-127835750D01*
X118676252Y-127677002D01*
X118835000Y-127677002D01*
X118835000Y-127658025D01*
X118965301Y-127788327D01*
X119198690Y-127885000D01*
X119414250Y-127885000D01*
X119573000Y-127726250D01*
X119573000Y-126777000D01*
X118848750Y-126777000D01*
X118736888Y-126888862D01*
X118559698Y-126711673D01*
X118326309Y-126615000D01*
X118085750Y-126615000D01*
X117927000Y-126773750D01*
X117927000Y-127423000D01*
X117947000Y-127423000D01*
X117947000Y-127677000D01*
X117927000Y-127677000D01*
X117927000Y-128326250D01*
X118085750Y-128485000D01*
X118326309Y-128485000D01*
X118559698Y-128388327D01*
X118738327Y-128209699D01*
X118828051Y-127993086D01*
X121504951Y-127993086D01*
X118828051Y-127993086D01*
X118828051Y-127993086D01*
X121504951Y-127993086D01*
X121269844Y-128344949D01*
X121187285Y-128760000D01*
X113060902Y-128760000D01*
X112709869Y-128408967D01*
X112759698Y-128388327D01*
X112938327Y-128209699D01*
X113035000Y-127976310D01*
X113035000Y-127835750D01*
X112876250Y-127677000D01*
X116923750Y-127677000D01*
X116765000Y-127835750D01*
X116765000Y-127976310D01*
X116861673Y-128209699D01*
X117040302Y-128388327D01*
X117273691Y-128485000D01*
X117514250Y-128485000D01*
X117673000Y-128326250D01*
X117673000Y-127677000D01*
X116923750Y-127677000D01*
X112876250Y-127677000D01*
X112876250Y-127677000D01*
X112127000Y-127677000D01*
X112127000Y-127697000D01*
X111997902Y-127697000D01*
X111853300Y-127552398D01*
X111853300Y-127423000D01*
X111873000Y-127423000D01*
X111873000Y-126773750D01*
X111853300Y-126754050D01*
X111853300Y-126615000D01*
X112285750Y-126615000D01*
X112127000Y-126773750D01*
X112127000Y-127423000D01*
X112876250Y-127423000D01*
X113035000Y-127264250D01*
X113035000Y-127123690D01*
X112938327Y-126890301D01*
X112759698Y-126711673D01*
X112526309Y-126615000D01*
X117273691Y-126615000D01*
X117040302Y-126711673D01*
X116861673Y-126890301D01*
X116765000Y-127123690D01*
X116765000Y-127264250D01*
X116923750Y-127423000D01*
X117673000Y-127423000D01*
X117673000Y-126773750D01*
X117514250Y-126615000D01*
X117273691Y-126615000D01*
X112526309Y-126615000D01*
X112526309Y-126615000D01*
X112285750Y-126615000D01*
X111853300Y-126615000D01*
X111853300Y-125333802D01*
X111952802Y-125234300D01*
X112000000Y-125234300D01*
X112290839Y-125176448D01*
X112537401Y-125011701D01*
X112702148Y-124765139D01*
X112714528Y-124702900D01*
X112752340Y-124678062D01*
X112802300Y-124688000D01*
X117062396Y-124688000D01*
X117150360Y-124747377D01*
X117400000Y-124797440D01*
X117973338Y-124797440D01*
X118463299Y-125287401D01*
X118695520Y-125442565D01*
X118724537Y-125592123D01*
X118788096Y-125688879D01*
X118786673Y-125690302D01*
X118690000Y-125923691D01*
X118690000Y-126364250D01*
X118848750Y-126523000D01*
X119573000Y-126523000D01*
X119573000Y-126503000D01*
X119827000Y-126503000D01*
X119827000Y-126523000D01*
X120551250Y-126523000D01*
X120710000Y-126364250D01*
X120710000Y-125923691D01*
X120613327Y-125690302D01*
X120612045Y-125689020D01*
X120672377Y-125599640D01*
X120722440Y-125350000D01*
X120722440Y-124150000D01*
X120675463Y-123907877D01*
X120535673Y-123695073D01*
X120324640Y-123552623D01*
X120075000Y-123502560D01*
X119325000Y-123502560D01*
X119082877Y-123549537D01*
X118957439Y-123631937D01*
X118840685Y-123515183D01*
X118800463Y-123307877D01*
X118660673Y-123095073D01*
X118449640Y-122952623D01*
X118200000Y-122902560D01*
X117400000Y-122902560D01*
X117157877Y-122949537D01*
X116945073Y-123089327D01*
X116891968Y-123168000D01*
X113045293Y-123168000D01*
X113015139Y-123147852D01*
X112877337Y-123120441D01*
X112860673Y-123095073D01*
X112649640Y-122952623D01*
X112400000Y-122902560D01*
X111600000Y-122902560D01*
X111357877Y-122949537D01*
X111145073Y-123089327D01*
X111002623Y-123300360D01*
X110952560Y-123550000D01*
X110952560Y-123708838D01*
X110910673Y-123645073D01*
X110699640Y-123502623D01*
X110450000Y-123452560D01*
X109550000Y-123452560D01*
X109307877Y-123499537D01*
X109095073Y-123639327D01*
X108952623Y-123850360D01*
X108902560Y-124100000D01*
X108902560Y-125300000D01*
X108949537Y-125542123D01*
X109089327Y-125754927D01*
X109155529Y-125799614D01*
X109095073Y-125839327D01*
X108952623Y-126050360D01*
X108902560Y-126300000D01*
X108902560Y-127500000D01*
X108949537Y-127742123D01*
X109089327Y-127954927D01*
X109115000Y-127972257D01*
X109115000Y-136639995D01*
X109114999Y-136640000D01*
X109152056Y-136826292D01*
X109182367Y-136978675D01*
X109360853Y-137245800D01*
X109374210Y-137265790D01*
X113817895Y-141709475D01*
X113772041Y-141940000D01*
X113886115Y-142513489D01*
X114210971Y-142999670D01*
X114697152Y-143324526D01*
X115270641Y-143438600D01*
X115329359Y-143438600D01*
X115510908Y-143402488D01*
X116015208Y-143906787D01*
X116015210Y-143906790D01*
X116302325Y-144098633D01*
X116641000Y-144166000D01*
X133718695Y-144166000D01*
X133718700Y-144166001D01*
X134001184Y-144109810D01*
X134057375Y-144098633D01*
X134344490Y-143906790D01*
X134344491Y-143906789D01*
X137512923Y-140738356D01*
X137600360Y-140797377D01*
X137850000Y-140847440D01*
X138750000Y-140847440D01*
X138992123Y-140800463D01*
X139086915Y-140738195D01*
X139474808Y-141126087D01*
X139474810Y-141126090D01*
X139761925Y-141317933D01*
X140100600Y-141385300D01*
X141615430Y-141385300D01*
X141624083Y-141406243D01*
X141886873Y-141669492D01*
X142230401Y-141812138D01*
X142602367Y-141812462D01*
X142946143Y-141670417D01*
X143021106Y-141595585D01*
X143049537Y-141742123D01*
X143189327Y-141954927D01*
X143400360Y-142097377D01*
X143650000Y-142147440D01*
X144550000Y-142147440D01*
X144792123Y-142100463D01*
X145004927Y-141960673D01*
X145087918Y-141837726D01*
X145250360Y-141947377D01*
X145500000Y-141997440D01*
X146300000Y-141997440D01*
X146542123Y-141950463D01*
X146754927Y-141810673D01*
X146755381Y-141810000D01*
X150846842Y-141810000D01*
X151050360Y-141947377D01*
X151300000Y-141997440D01*
X152100000Y-141997440D01*
X152342123Y-141950463D01*
X152554927Y-141810673D01*
X152575711Y-141779882D01*
X152715139Y-141752148D01*
X152961701Y-141587401D01*
X153126448Y-141340839D01*
X153135081Y-141297440D01*
X153675000Y-141297440D01*
X153917123Y-141250463D01*
X154129927Y-141110673D01*
X154272377Y-140899640D01*
X154303783Y-140743031D01*
X154315000Y-140735536D01*
X154315000Y-144315000D01*
X105685000Y-144315000D01*
X105685000Y-120685000D01*
X139863498Y-120685000D01*
X133178688Y-127369810D01*
X133178688Y-127369810D01*
G37*
X133178688Y-127369810D02*
X132926227Y-127116908D01*
X132582699Y-126974262D01*
X132210733Y-126973938D01*
X131866957Y-127115983D01*
X131603708Y-127378773D01*
X131461062Y-127722301D01*
X131461021Y-127769177D01*
X131114498Y-128115700D01*
X130020000Y-128115700D01*
X129729161Y-128173552D01*
X129482599Y-128338299D01*
X129339435Y-128552560D01*
X129156400Y-128552560D01*
X128914277Y-128599537D01*
X128701473Y-128739327D01*
X128559023Y-128950360D01*
X128508960Y-129200000D01*
X128508960Y-132200000D01*
X128555937Y-132442123D01*
X128695727Y-132654927D01*
X128906760Y-132797377D01*
X129156400Y-132847440D01*
X129319914Y-132847440D01*
X129319838Y-132934767D01*
X129414901Y-133164838D01*
X129375225Y-133164803D01*
X128957914Y-133337233D01*
X128638355Y-133656235D01*
X128465197Y-134073244D01*
X128464803Y-134524775D01*
X128637233Y-134942086D01*
X128956235Y-135261645D01*
X129373244Y-135434803D01*
X129824775Y-135435197D01*
X130242086Y-135262767D01*
X130550257Y-134955133D01*
X130856235Y-135261645D01*
X131273244Y-135434803D01*
X131724775Y-135435197D01*
X132142086Y-135262767D01*
X132461645Y-134943765D01*
X132634803Y-134526756D01*
X132635197Y-134075225D01*
X132462767Y-133657914D01*
X132260000Y-133454793D01*
X132260000Y-133316019D01*
X132317192Y-133258927D01*
X132459838Y-132915399D01*
X132459897Y-132847440D01*
X133423600Y-132847440D01*
X133665723Y-132800463D01*
X133878527Y-132660673D01*
X134020977Y-132449640D01*
X134037089Y-132369295D01*
X134130132Y-132485873D01*
X134643843Y-132769527D01*
X134740974Y-132791358D01*
X134973000Y-132670217D01*
X134973000Y-130827000D01*
X134953000Y-130827000D01*
X134953000Y-130573000D01*
X134973000Y-130573000D01*
X134973000Y-130553000D01*
X135227000Y-130553000D01*
X135227000Y-130573000D01*
X136598600Y-130573000D01*
X136598600Y-129936600D01*
X136435925Y-129372778D01*
X136399070Y-129326600D01*
X136484392Y-129241427D01*
X136627038Y-128897899D01*
X136627362Y-128525933D01*
X136485317Y-128182157D01*
X136222527Y-127918908D01*
X135878999Y-127776262D01*
X135507033Y-127775938D01*
X135163257Y-127917983D01*
X135130082Y-127951100D01*
X134763300Y-127951100D01*
X134742955Y-127955147D01*
X139265013Y-123433089D01*
X149846517Y-123433089D01*
X149975725Y-123725859D01*
X150675883Y-123994071D01*
X151425384Y-123973928D01*
X152024275Y-123725859D01*
X152153483Y-123433089D01*
X151000000Y-122279605D01*
X149846517Y-123433089D01*
X139265013Y-123433089D01*
X141446202Y-121251900D01*
X149306653Y-121251900D01*
X149105929Y-121775883D01*
X149126072Y-122525384D01*
X149374141Y-123124275D01*
X149666911Y-123253483D01*
X150820395Y-122100000D01*
X150806252Y-122085858D01*
X150985858Y-121906252D01*
X151000000Y-121920395D01*
X151014142Y-121906252D01*
X151193748Y-122085858D01*
X151179605Y-122100000D01*
X152333089Y-123253483D01*
X152625859Y-123124275D01*
X152783488Y-122712790D01*
X153240400Y-123169702D01*
X153240400Y-136915000D01*
X153172998Y-136915000D01*
X153172998Y-137073748D01*
X153014250Y-136915000D01*
X152798690Y-136915000D01*
X152735000Y-136941381D01*
X152735000Y-136923690D01*
X152638327Y-136690301D01*
X152459698Y-136511673D01*
X152226309Y-136415000D01*
X151985750Y-136415000D01*
X151827000Y-136573750D01*
X151827000Y-137223000D01*
X151847000Y-137223000D01*
X151847000Y-137477000D01*
X151827000Y-137477000D01*
X151827000Y-138126250D01*
X151985750Y-138285000D01*
X152226309Y-138285000D01*
X152290000Y-138258618D01*
X152290000Y-138277002D01*
X152448748Y-138277002D01*
X152290000Y-138435750D01*
X152290000Y-138876309D01*
X152386673Y-139109698D01*
X152387955Y-139110980D01*
X152327623Y-139200360D01*
X152296217Y-139356968D01*
X152063299Y-139512599D01*
X151886899Y-139688999D01*
X151722152Y-139935561D01*
X151688934Y-140102560D01*
X151300000Y-140102560D01*
X151057877Y-140149537D01*
X150845073Y-140289327D01*
X150844619Y-140290000D01*
X146753158Y-140290000D01*
X146549640Y-140152623D01*
X146300000Y-140102560D01*
X145500000Y-140102560D01*
X145257877Y-140149537D01*
X145178379Y-140201759D01*
X145150463Y-140057877D01*
X145010673Y-139845073D01*
X144944471Y-139800386D01*
X145004927Y-139760673D01*
X145147377Y-139549640D01*
X145197440Y-139300000D01*
X145197440Y-138211994D01*
X145373691Y-138285000D01*
X145614250Y-138285000D01*
X145773000Y-138126250D01*
X145773000Y-137477000D01*
X146027000Y-137477000D01*
X146027000Y-138126250D01*
X146185750Y-138285000D01*
X146426309Y-138285000D01*
X146659698Y-138188327D01*
X146838327Y-138009699D01*
X146935000Y-137776310D01*
X146935000Y-137635750D01*
X146776250Y-137477000D01*
X150823750Y-137477000D01*
X150665000Y-137635750D01*
X150665000Y-137776310D01*
X150761673Y-138009699D01*
X150940302Y-138188327D01*
X151173691Y-138285000D01*
X151414250Y-138285000D01*
X151573000Y-138126250D01*
X151573000Y-137477000D01*
X150823750Y-137477000D01*
X146776250Y-137477000D01*
X146776250Y-137477000D01*
X146027000Y-137477000D01*
X145773000Y-137477000D01*
X145773000Y-137477000D01*
X145023750Y-137477000D01*
X144918139Y-137582611D01*
X144799640Y-137502623D01*
X144550000Y-137452560D01*
X143650000Y-137452560D01*
X143407877Y-137499537D01*
X143195073Y-137639327D01*
X143052623Y-137850360D01*
X143002560Y-138100000D01*
X143002560Y-138545861D01*
X141933120Y-139615300D01*
X141889550Y-139615300D01*
X141851250Y-139577000D01*
X141127000Y-139577000D01*
X141127000Y-139597000D01*
X140873000Y-139597000D01*
X140873000Y-139577000D01*
X140853000Y-139577000D01*
X140853000Y-139323000D01*
X140873000Y-139323000D01*
X140873000Y-139303000D01*
X141127000Y-139303000D01*
X141127000Y-139323000D01*
X141851250Y-139323000D01*
X142010000Y-139164250D01*
X142010000Y-138723691D01*
X141913327Y-138490302D01*
X141912045Y-138489020D01*
X141967617Y-138406692D01*
X142119438Y-138376492D01*
X142163975Y-138367633D01*
X142451090Y-138175790D01*
X142451091Y-138175789D01*
X142755287Y-137871592D01*
X142755290Y-137871590D01*
X142947133Y-137584475D01*
X142963033Y-137504539D01*
X143014501Y-137245800D01*
X143014500Y-137245795D01*
X143014500Y-136415000D01*
X145373691Y-136415000D01*
X145140302Y-136511673D01*
X144961673Y-136690301D01*
X144865000Y-136923690D01*
X144865000Y-137064250D01*
X145023750Y-137223000D01*
X145773000Y-137223000D01*
X145773000Y-136573750D01*
X145614250Y-136415000D01*
X146185750Y-136415000D01*
X146027000Y-136573750D01*
X146027000Y-137223000D01*
X146776250Y-137223000D01*
X146935000Y-137064250D01*
X146935000Y-136923690D01*
X146838327Y-136690301D01*
X146659698Y-136511673D01*
X146426309Y-136415000D01*
X151173691Y-136415000D01*
X150940302Y-136511673D01*
X150761673Y-136690301D01*
X150665000Y-136923690D01*
X150665000Y-137064250D01*
X150823750Y-137223000D01*
X151573000Y-137223000D01*
X151573000Y-136573750D01*
X151414250Y-136415000D01*
X151173691Y-136415000D01*
X146426309Y-136415000D01*
X146426309Y-136415000D01*
X146185750Y-136415000D01*
X145614250Y-136415000D01*
X145614250Y-136415000D01*
X145373691Y-136415000D01*
X143014500Y-136415000D01*
X143014500Y-132205667D01*
X143336600Y-132298600D01*
X143973000Y-132298600D01*
X143973000Y-130927000D01*
X144227000Y-130927000D01*
X144227000Y-132298600D01*
X144863400Y-132298600D01*
X145427222Y-132135925D01*
X145885873Y-131769868D01*
X146169527Y-131256157D01*
X146191358Y-131159026D01*
X146070217Y-130927000D01*
X144227000Y-130927000D01*
X143973000Y-130927000D01*
X143973000Y-130927000D01*
X143953000Y-130927000D01*
X143953000Y-130673000D01*
X143973000Y-130673000D01*
X143973000Y-130653000D01*
X144227000Y-130653000D01*
X144227000Y-130673000D01*
X146070217Y-130673000D01*
X146191358Y-130440974D01*
X146169527Y-130343843D01*
X145885873Y-129830132D01*
X145770408Y-129737977D01*
X145842123Y-129724063D01*
X146054927Y-129584273D01*
X146197377Y-129373240D01*
X146247440Y-129123600D01*
X146247440Y-127396400D01*
X146200463Y-127154277D01*
X146092063Y-126989258D01*
X146197377Y-126833240D01*
X146247440Y-126583600D01*
X146247440Y-124856400D01*
X146200463Y-124614277D01*
X146060673Y-124401473D01*
X145849640Y-124259023D01*
X145600000Y-124208960D01*
X142600000Y-124208960D01*
X142357877Y-124255937D01*
X142145073Y-124395727D01*
X142002623Y-124606760D01*
X141952560Y-124856400D01*
X141952560Y-125039434D01*
X141738299Y-125182599D01*
X140852999Y-126067899D01*
X140688252Y-126314461D01*
X140630400Y-126605300D01*
X140630400Y-130866710D01*
X140626756Y-130865197D01*
X140175225Y-130864803D01*
X139757914Y-131037233D01*
X139438355Y-131356235D01*
X139299873Y-131689735D01*
X139162767Y-131357914D01*
X138843765Y-131038355D01*
X138426756Y-130865197D01*
X137975225Y-130864803D01*
X137557914Y-131037233D01*
X137511639Y-131083427D01*
X137507627Y-131079408D01*
X137164099Y-130936762D01*
X136792133Y-130936438D01*
X136598600Y-131016404D01*
X136598600Y-130827000D01*
X135227000Y-130827000D01*
X135227000Y-132670217D01*
X135453063Y-132788245D01*
X135646073Y-132981592D01*
X135989601Y-133124238D01*
X136036477Y-133124279D01*
X136301999Y-133389801D01*
X136548561Y-133554548D01*
X136839400Y-133612400D01*
X136961997Y-133612400D01*
X136902623Y-133700360D01*
X136852560Y-133950000D01*
X136852560Y-134850000D01*
X136899537Y-135092123D01*
X136981937Y-135217561D01*
X136052359Y-136147139D01*
X135943765Y-136038355D01*
X135526756Y-135865197D01*
X135075225Y-135864803D01*
X134657914Y-136037233D01*
X134338355Y-136356235D01*
X134165197Y-136773244D01*
X134164803Y-137224775D01*
X134337233Y-137642086D01*
X134593837Y-137899138D01*
X134578862Y-137935201D01*
X134578538Y-138307167D01*
X134720583Y-138650943D01*
X134983373Y-138914192D01*
X135326901Y-139056838D01*
X135698867Y-139057162D01*
X136042643Y-138915117D01*
X136305892Y-138652327D01*
X136364665Y-138510786D01*
X136687443Y-138377417D01*
X136950692Y-138114627D01*
X137093338Y-137771099D01*
X137093662Y-137399133D01*
X137051649Y-137297453D01*
X137202560Y-137146542D01*
X137202560Y-138000000D01*
X137249537Y-138242123D01*
X137389327Y-138454927D01*
X137455529Y-138499614D01*
X137395073Y-138539327D01*
X137257383Y-138743308D01*
X137061025Y-138782367D01*
X136773910Y-138974210D01*
X136773908Y-138974213D01*
X133352120Y-142396000D01*
X131334830Y-142396000D01*
X131335197Y-141975225D01*
X131162767Y-141557914D01*
X131069670Y-141464654D01*
X131146138Y-141280499D01*
X131146462Y-140908533D01*
X131004417Y-140564757D01*
X130741627Y-140301508D01*
X130398099Y-140158862D01*
X130026133Y-140158538D01*
X129682357Y-140300583D01*
X129419108Y-140563373D01*
X129276462Y-140906901D01*
X129276138Y-141278867D01*
X129346243Y-141448535D01*
X129238355Y-141556235D01*
X129065197Y-141973244D01*
X129064828Y-142396000D01*
X128906050Y-142396000D01*
X128934803Y-142326756D01*
X128935197Y-141875225D01*
X128762767Y-141457914D01*
X128590573Y-141285419D01*
X128673338Y-141086099D01*
X128673662Y-140714133D01*
X128531617Y-140370357D01*
X128268827Y-140107108D01*
X127925299Y-139964462D01*
X127553333Y-139964138D01*
X127209557Y-140106183D01*
X126946308Y-140368973D01*
X126803662Y-140712501D01*
X126803338Y-141084467D01*
X126922317Y-141372419D01*
X126838355Y-141456235D01*
X126665197Y-141873244D01*
X126664803Y-142324775D01*
X126694233Y-142396000D01*
X121794792Y-142396000D01*
X121834958Y-142299026D01*
X121713817Y-142067000D01*
X120507000Y-142067000D01*
X120507000Y-142087000D01*
X120253000Y-142087000D01*
X120253000Y-142067000D01*
X120233000Y-142067000D01*
X120233000Y-141813000D01*
X120253000Y-141813000D01*
X120253000Y-141793000D01*
X120507000Y-141793000D01*
X120507000Y-141813000D01*
X121713817Y-141813000D01*
X121834958Y-141580974D01*
X121662688Y-141165053D01*
X121268490Y-140733179D01*
X121145772Y-140675664D01*
X121469029Y-140459670D01*
X121793885Y-139973489D01*
X121907959Y-139400000D01*
X121793885Y-138826511D01*
X121469029Y-138340330D01*
X121140000Y-138120480D01*
X121140000Y-137586200D01*
X125500800Y-137586200D01*
X125791639Y-137528348D01*
X126038201Y-137363601D01*
X126432580Y-136969222D01*
X126478067Y-136969262D01*
X126821843Y-136827217D01*
X127085092Y-136564427D01*
X127227738Y-136220899D01*
X127228062Y-135848933D01*
X127086017Y-135505157D01*
X126823227Y-135241908D01*
X126479699Y-135099262D01*
X126107733Y-135098938D01*
X125763957Y-135240983D01*
X125500708Y-135503773D01*
X125358062Y-135847301D01*
X125358021Y-135894177D01*
X125185998Y-136066200D01*
X120367102Y-136066200D01*
X113060902Y-128760000D01*
X121187285Y-128760000D01*
X121269844Y-129175051D01*
X121416809Y-129395000D01*
X121269844Y-129614949D01*
X121187285Y-130030000D01*
X121269844Y-130445051D01*
X121416809Y-130665000D01*
X121269844Y-130884949D01*
X121187285Y-131300000D01*
X121269844Y-131715051D01*
X121504951Y-132066914D01*
X121856814Y-132302021D01*
X122271865Y-132384580D01*
X122928135Y-132384580D01*
X123343186Y-132302021D01*
X123695049Y-132066914D01*
X123930156Y-131715051D01*
X124012715Y-131300000D01*
X123930156Y-130884949D01*
X123783191Y-130665000D01*
X123930156Y-130445051D01*
X124012715Y-130030000D01*
X123930156Y-129614949D01*
X123783191Y-129395000D01*
X123930156Y-129175051D01*
X124012715Y-128760000D01*
X123930156Y-128344949D01*
X123695049Y-127993086D01*
X123343186Y-127757979D01*
X122928135Y-127675420D01*
X122271865Y-127675420D01*
X120547605Y-127675420D01*
X120613327Y-127609698D01*
X120710000Y-127376309D01*
X120710000Y-126935750D01*
X120551250Y-126777000D01*
X119827000Y-126777000D01*
X119827000Y-127726250D01*
X119985750Y-127885000D01*
X120201310Y-127885000D01*
X120434699Y-127788327D01*
X120547605Y-127675420D01*
X122271865Y-127675420D01*
X120547605Y-127675420D01*
X120547605Y-127675420D01*
X122271865Y-127675420D01*
X121856814Y-127757979D01*
X121504951Y-127993086D01*
X118828051Y-127993086D01*
X118835000Y-127976310D01*
X118835000Y-127835750D01*
X118676252Y-127677002D01*
X118835000Y-127677002D01*
X118835000Y-127658025D01*
X118965301Y-127788327D01*
X119198690Y-127885000D01*
X119414250Y-127885000D01*
X119573000Y-127726250D01*
X119573000Y-126777000D01*
X118848750Y-126777000D01*
X118736888Y-126888862D01*
X118559698Y-126711673D01*
X118326309Y-126615000D01*
X118085750Y-126615000D01*
X117927000Y-126773750D01*
X117927000Y-127423000D01*
X117947000Y-127423000D01*
X117947000Y-127677000D01*
X117927000Y-127677000D01*
X117927000Y-128326250D01*
X118085750Y-128485000D01*
X118326309Y-128485000D01*
X118559698Y-128388327D01*
X118738327Y-128209699D01*
X118828051Y-127993086D01*
X121504951Y-127993086D01*
X118828051Y-127993086D01*
X118828051Y-127993086D01*
X121504951Y-127993086D01*
X121269844Y-128344949D01*
X121187285Y-128760000D01*
X113060902Y-128760000D01*
X112709869Y-128408967D01*
X112759698Y-128388327D01*
X112938327Y-128209699D01*
X113035000Y-127976310D01*
X113035000Y-127835750D01*
X112876250Y-127677000D01*
X116923750Y-127677000D01*
X116765000Y-127835750D01*
X116765000Y-127976310D01*
X116861673Y-128209699D01*
X117040302Y-128388327D01*
X117273691Y-128485000D01*
X117514250Y-128485000D01*
X117673000Y-128326250D01*
X117673000Y-127677000D01*
X116923750Y-127677000D01*
X112876250Y-127677000D01*
X112876250Y-127677000D01*
X112127000Y-127677000D01*
X112127000Y-127697000D01*
X111997902Y-127697000D01*
X111853300Y-127552398D01*
X111853300Y-127423000D01*
X111873000Y-127423000D01*
X111873000Y-126773750D01*
X111853300Y-126754050D01*
X111853300Y-126615000D01*
X112285750Y-126615000D01*
X112127000Y-126773750D01*
X112127000Y-127423000D01*
X112876250Y-127423000D01*
X113035000Y-127264250D01*
X113035000Y-127123690D01*
X112938327Y-126890301D01*
X112759698Y-126711673D01*
X112526309Y-126615000D01*
X117273691Y-126615000D01*
X117040302Y-126711673D01*
X116861673Y-126890301D01*
X116765000Y-127123690D01*
X116765000Y-127264250D01*
X116923750Y-127423000D01*
X117673000Y-127423000D01*
X117673000Y-126773750D01*
X117514250Y-126615000D01*
X117273691Y-126615000D01*
X112526309Y-126615000D01*
X112526309Y-126615000D01*
X112285750Y-126615000D01*
X111853300Y-126615000D01*
X111853300Y-125333802D01*
X111952802Y-125234300D01*
X112000000Y-125234300D01*
X112290839Y-125176448D01*
X112537401Y-125011701D01*
X112702148Y-124765139D01*
X112714528Y-124702900D01*
X112752340Y-124678062D01*
X112802300Y-124688000D01*
X117062396Y-124688000D01*
X117150360Y-124747377D01*
X117400000Y-124797440D01*
X117973338Y-124797440D01*
X118463299Y-125287401D01*
X118695520Y-125442565D01*
X118724537Y-125592123D01*
X118788096Y-125688879D01*
X118786673Y-125690302D01*
X118690000Y-125923691D01*
X118690000Y-126364250D01*
X118848750Y-126523000D01*
X119573000Y-126523000D01*
X119573000Y-126503000D01*
X119827000Y-126503000D01*
X119827000Y-126523000D01*
X120551250Y-126523000D01*
X120710000Y-126364250D01*
X120710000Y-125923691D01*
X120613327Y-125690302D01*
X120612045Y-125689020D01*
X120672377Y-125599640D01*
X120722440Y-125350000D01*
X120722440Y-124150000D01*
X120675463Y-123907877D01*
X120535673Y-123695073D01*
X120324640Y-123552623D01*
X120075000Y-123502560D01*
X119325000Y-123502560D01*
X119082877Y-123549537D01*
X118957439Y-123631937D01*
X118840685Y-123515183D01*
X118800463Y-123307877D01*
X118660673Y-123095073D01*
X118449640Y-122952623D01*
X118200000Y-122902560D01*
X117400000Y-122902560D01*
X117157877Y-122949537D01*
X116945073Y-123089327D01*
X116891968Y-123168000D01*
X113045293Y-123168000D01*
X113015139Y-123147852D01*
X112877337Y-123120441D01*
X112860673Y-123095073D01*
X112649640Y-122952623D01*
X112400000Y-122902560D01*
X111600000Y-122902560D01*
X111357877Y-122949537D01*
X111145073Y-123089327D01*
X111002623Y-123300360D01*
X110952560Y-123550000D01*
X110952560Y-123708838D01*
X110910673Y-123645073D01*
X110699640Y-123502623D01*
X110450000Y-123452560D01*
X109550000Y-123452560D01*
X109307877Y-123499537D01*
X109095073Y-123639327D01*
X108952623Y-123850360D01*
X108902560Y-124100000D01*
X108902560Y-125300000D01*
X108949537Y-125542123D01*
X109089327Y-125754927D01*
X109155529Y-125799614D01*
X109095073Y-125839327D01*
X108952623Y-126050360D01*
X108902560Y-126300000D01*
X108902560Y-127500000D01*
X108949537Y-127742123D01*
X109089327Y-127954927D01*
X109115000Y-127972257D01*
X109115000Y-136639995D01*
X109114999Y-136640000D01*
X109152056Y-136826292D01*
X109182367Y-136978675D01*
X109360853Y-137245800D01*
X109374210Y-137265790D01*
X113817895Y-141709475D01*
X113772041Y-141940000D01*
X113886115Y-142513489D01*
X114210971Y-142999670D01*
X114697152Y-143324526D01*
X115270641Y-143438600D01*
X115329359Y-143438600D01*
X115510908Y-143402488D01*
X116015208Y-143906787D01*
X116015210Y-143906790D01*
X116302325Y-144098633D01*
X116641000Y-144166000D01*
X133718695Y-144166000D01*
X133718700Y-144166001D01*
X134001184Y-144109810D01*
X134057375Y-144098633D01*
X134344490Y-143906790D01*
X134344491Y-143906789D01*
X137512923Y-140738356D01*
X137600360Y-140797377D01*
X137850000Y-140847440D01*
X138750000Y-140847440D01*
X138992123Y-140800463D01*
X139086915Y-140738195D01*
X139474808Y-141126087D01*
X139474810Y-141126090D01*
X139761925Y-141317933D01*
X140100600Y-141385300D01*
X141615430Y-141385300D01*
X141624083Y-141406243D01*
X141886873Y-141669492D01*
X142230401Y-141812138D01*
X142602367Y-141812462D01*
X142946143Y-141670417D01*
X143021106Y-141595585D01*
X143049537Y-141742123D01*
X143189327Y-141954927D01*
X143400360Y-142097377D01*
X143650000Y-142147440D01*
X144550000Y-142147440D01*
X144792123Y-142100463D01*
X145004927Y-141960673D01*
X145087918Y-141837726D01*
X145250360Y-141947377D01*
X145500000Y-141997440D01*
X146300000Y-141997440D01*
X146542123Y-141950463D01*
X146754927Y-141810673D01*
X146755381Y-141810000D01*
X150846842Y-141810000D01*
X151050360Y-141947377D01*
X151300000Y-141997440D01*
X152100000Y-141997440D01*
X152342123Y-141950463D01*
X152554927Y-141810673D01*
X152575711Y-141779882D01*
X152715139Y-141752148D01*
X152961701Y-141587401D01*
X153126448Y-141340839D01*
X153135081Y-141297440D01*
X153675000Y-141297440D01*
X153917123Y-141250463D01*
X154129927Y-141110673D01*
X154272377Y-140899640D01*
X154303783Y-140743031D01*
X154315000Y-140735536D01*
X154315000Y-144315000D01*
X105685000Y-144315000D01*
X105685000Y-120685000D01*
X139863498Y-120685000D01*
X133178688Y-127369810D01*
G36*
X139836025Y-138367633D02*
X139880562Y-138376492D01*
X140034366Y-138407086D01*
X140088096Y-138488879D01*
X140086673Y-138490302D01*
X139990000Y-138723691D01*
X139990000Y-139138120D01*
X139826090Y-138974210D01*
X139822932Y-138972100D01*
X139538975Y-138782367D01*
X139482784Y-138771190D01*
X139340634Y-138742914D01*
X139210673Y-138545073D01*
X139144471Y-138500386D01*
X139204927Y-138460673D01*
X139323509Y-138285000D01*
X139712355Y-138285000D01*
X139836025Y-138367633D01*
X139836025Y-138367633D01*
G37*
X139836025Y-138367633D02*
X139880562Y-138376492D01*
X140034366Y-138407086D01*
X140088096Y-138488879D01*
X140086673Y-138490302D01*
X139990000Y-138723691D01*
X139990000Y-139138120D01*
X139826090Y-138974210D01*
X139822932Y-138972100D01*
X139538975Y-138782367D01*
X139482784Y-138771190D01*
X139340634Y-138742914D01*
X139210673Y-138545073D01*
X139144471Y-138500386D01*
X139204927Y-138460673D01*
X139323509Y-138285000D01*
X139712355Y-138285000D01*
X139836025Y-138367633D01*
M02*
