M48
INCH,TZ
T1C0.016
T2C0.024
T3C0.039
T4C0.040
%
G90
G05
T1
X46647Y-54215
X49722Y-53557
X50291Y-55472
X50477Y-51821
X51264Y-55549
X51281Y-52264
X51781Y-52255
X52124Y-50358
X52344Y-50657
X53352Y-54379
X53422Y-50674
X53606Y-54167
X53613Y-52043
X53928Y-51918
X56070Y-55464
T2
X48268Y-50693
X48268Y-51193
X48268Y-51693
T3
X59449Y-48071
T4
X45394Y-54882
X45394Y-55882
X46394Y-54882
X46394Y-55882
X47394Y-54882
X47394Y-55882
T0
M30
