G04 #@! TF.FileFunction,Soldermask,Bot*
%FSLAX46Y46*%
G04 Gerber Fmt 4.6, Leading zero omitted, Abs format (unit mm)*
G04 Created by KiCad (PCBNEW 0.201507042246+5884~23~ubuntu14.04.1-product) date Wed 08 Jul 2015 10:22:00 AM CEST*
%MOMM*%
G01*
G04 APERTURE LIST*
%ADD10C,0.100000*%
%ADD11R,1.200000X0.900000*%
%ADD12R,0.900000X1.200000*%
%ADD13O,3.000000X1.727200*%
%ADD14R,3.000000X1.727200*%
%ADD15C,1.000000*%
%ADD16R,0.750000X1.200000*%
%ADD17R,1.727200X1.727200*%
%ADD18O,1.727200X1.727200*%
%ADD19O,1.727200X3.000000*%
%ADD20R,1.727200X3.000000*%
%ADD21R,0.800000X0.600000*%
%ADD22O,1.501140X0.899160*%
%ADD23C,2.499360*%
G04 APERTURE END LIST*
D10*
D11*
X140300000Y-134400000D03*
X138100000Y-134400000D03*
D12*
X138300000Y-137400000D03*
X138300000Y-139600000D03*
X110000000Y-126900000D03*
X110000000Y-124700000D03*
D13*
X144100000Y-130800000D03*
D14*
X144100000Y-128260000D03*
X144100000Y-125720000D03*
D15*
X138200000Y-132000000D03*
X140400000Y-132000000D03*
X130200000Y-142200000D03*
X127800000Y-142100000D03*
D16*
X153300000Y-138150000D03*
X153300000Y-140050000D03*
X141000000Y-137550000D03*
X141000000Y-139450000D03*
X119700000Y-124750000D03*
X119700000Y-126650000D03*
D12*
X144100000Y-138700000D03*
X144100000Y-140900000D03*
D15*
X135300000Y-137000000D03*
X131500000Y-134300000D03*
X129600000Y-134300000D03*
D17*
X115300000Y-139400000D03*
D18*
X115300000Y-141940000D03*
X117840000Y-139400000D03*
X117840000Y-141940000D03*
X120380000Y-139400000D03*
X120380000Y-141940000D03*
D19*
X135100000Y-130700000D03*
D20*
X132560000Y-130700000D03*
X130020000Y-130700000D03*
D21*
X151700000Y-137350000D03*
X145900000Y-137350000D03*
X151700000Y-141050000D03*
X145900000Y-141050000D03*
X117800000Y-123850000D03*
X112000000Y-123850000D03*
X117800000Y-127550000D03*
X112000000Y-127550000D03*
D22*
X122600000Y-130030000D03*
X122600000Y-128760000D03*
X122600000Y-131300000D03*
D23*
X151000000Y-122100000D03*
M02*
