G04 #@! TF.FileFunction,Legend,Top*
%FSLAX46Y46*%
G04 Gerber Fmt 4.6, Leading zero omitted, Abs format (unit mm)*
G04 Created by KiCad (PCBNEW 0.201507042246+5884~23~ubuntu14.04.1-product) date Wed 08 Jul 2015 10:22:00 AM CEST*
%MOMM*%
G01*
G04 APERTURE LIST*
%ADD10C,0.100000*%
%ADD11C,0.150000*%
%ADD12C,0.500000*%
G04 APERTURE END LIST*
D10*
D11*
X119500000Y-124250000D02*
X119500000Y-123550000D01*
X120700000Y-123550000D02*
X120700000Y-124250000D01*
X131600000Y-124050000D02*
X131600000Y-123350000D01*
X132800000Y-123350000D02*
X132800000Y-124050000D01*
X123750000Y-125500000D02*
X124450000Y-125500000D01*
X124450000Y-126700000D02*
X123750000Y-126700000D01*
X149000000Y-126525000D02*
X150000000Y-126525000D01*
X150000000Y-127875000D02*
X149000000Y-127875000D01*
X126375000Y-130100000D02*
X126375000Y-131100000D01*
X125025000Y-131100000D02*
X125025000Y-130100000D01*
X121800000Y-135975000D02*
X120800000Y-135975000D01*
X120800000Y-134625000D02*
X121800000Y-134625000D01*
X137000000Y-141525000D02*
X138000000Y-141525000D01*
X138000000Y-142875000D02*
X137000000Y-142875000D01*
X145150420Y-126650420D02*
X145150420Y-127549580D01*
X145150420Y-127549580D02*
X144751640Y-127549580D01*
X144751640Y-126650420D02*
X144751640Y-127549580D01*
X145150420Y-126650420D02*
X144751640Y-126650420D01*
X146448360Y-126650420D02*
X146448360Y-127549580D01*
X146448360Y-127549580D02*
X146049580Y-127549580D01*
X146049580Y-126650420D02*
X146049580Y-127549580D01*
X146448360Y-126650420D02*
X146049580Y-126650420D01*
X145600000Y-126650420D02*
X145600000Y-126800280D01*
X145600000Y-126800280D02*
X145300280Y-126800280D01*
X145300280Y-126650420D02*
X145300280Y-126800280D01*
X145600000Y-126650420D02*
X145300280Y-126650420D01*
X145600000Y-127399720D02*
X145600000Y-127549580D01*
X145600000Y-127549580D02*
X145300280Y-127549580D01*
X145300280Y-127399720D02*
X145300280Y-127549580D01*
X145600000Y-127399720D02*
X145300280Y-127399720D01*
X145600000Y-126950140D02*
X145600000Y-127249860D01*
X145600000Y-127249860D02*
X145300280Y-127249860D01*
X145300280Y-126950140D02*
X145300280Y-127249860D01*
X145600000Y-126950140D02*
X145300280Y-126950140D01*
X145150420Y-126701220D02*
X146049580Y-126701220D01*
X145150420Y-127498780D02*
X146049580Y-127498780D01*
X141275000Y-131025000D02*
X140940000Y-131025000D01*
X141275000Y-138775000D02*
X140940000Y-138775000D01*
X128125000Y-138775000D02*
X128460000Y-138775000D01*
X128125000Y-131025000D02*
X128460000Y-131025000D01*
X141275000Y-131025000D02*
X141275000Y-138775000D01*
X128125000Y-131025000D02*
X128125000Y-138775000D01*
X140940000Y-131025000D02*
X140940000Y-129225000D01*
X110600000Y-128750000D02*
X110600000Y-127200000D01*
X109300000Y-128750000D02*
X110600000Y-128750000D01*
X105109000Y-127327000D02*
X99267000Y-127327000D01*
X99267000Y-127327000D02*
X99267000Y-127073000D01*
X99267000Y-127073000D02*
X105109000Y-127073000D01*
X105109000Y-127073000D02*
X105109000Y-127200000D01*
X105109000Y-127200000D02*
X99267000Y-127200000D01*
X107776000Y-127454000D02*
X108157000Y-127454000D01*
X107776000Y-126946000D02*
X108157000Y-126946000D01*
X107776000Y-124914000D02*
X108157000Y-124914000D01*
X107776000Y-124406000D02*
X108157000Y-124406000D01*
X107776000Y-128470000D02*
X105236000Y-128470000D01*
X107776000Y-125930000D02*
X105236000Y-125930000D01*
X107776000Y-125930000D02*
X107776000Y-123390000D01*
X107776000Y-123390000D02*
X105236000Y-123390000D01*
X105236000Y-124914000D02*
X99140000Y-124914000D01*
X99140000Y-124914000D02*
X99140000Y-124406000D01*
X99140000Y-124406000D02*
X105236000Y-124406000D01*
X105236000Y-123390000D02*
X105236000Y-125930000D01*
X105236000Y-125930000D02*
X105236000Y-128470000D01*
X99140000Y-126946000D02*
X105236000Y-126946000D01*
X99140000Y-127454000D02*
X99140000Y-126946000D01*
X105236000Y-127454000D02*
X99140000Y-127454000D01*
X107776000Y-125930000D02*
X105236000Y-125930000D01*
X107776000Y-128470000D02*
X107776000Y-125930000D01*
X141200000Y-141525000D02*
X142200000Y-141525000D01*
X142200000Y-142875000D02*
X141200000Y-142875000D01*
X123750000Y-122300000D02*
X124450000Y-122300000D01*
X124450000Y-123500000D02*
X123750000Y-123500000D01*
X123750000Y-123900000D02*
X124450000Y-123900000D01*
X124450000Y-125100000D02*
X123750000Y-125100000D01*
D12*
X114100000Y-129700000D02*
X114100000Y-131600000D01*
X114000000Y-121500000D02*
X114000000Y-123400000D01*
X115000000Y-125900000D02*
X115000000Y-124000000D01*
X115100000Y-128800000D02*
X115100000Y-126900000D01*
D11*
X142200000Y-139150000D02*
X142200000Y-138450000D01*
X143400000Y-138450000D02*
X143400000Y-139150000D01*
X145700000Y-130750000D02*
X145700000Y-132300000D01*
X147000000Y-130750000D02*
X145700000Y-130750000D01*
X151191000Y-132173000D02*
X157033000Y-132173000D01*
X157033000Y-132173000D02*
X157033000Y-132427000D01*
X157033000Y-132427000D02*
X151191000Y-132427000D01*
X151191000Y-132427000D02*
X151191000Y-132300000D01*
X151191000Y-132300000D02*
X157033000Y-132300000D01*
X148524000Y-132046000D02*
X148143000Y-132046000D01*
X148524000Y-132554000D02*
X148143000Y-132554000D01*
X148524000Y-134586000D02*
X148143000Y-134586000D01*
X148524000Y-135094000D02*
X148143000Y-135094000D01*
X148524000Y-137126000D02*
X148143000Y-137126000D01*
X148524000Y-137634000D02*
X148143000Y-137634000D01*
X151064000Y-133570000D02*
X151064000Y-131030000D01*
X157160000Y-132554000D02*
X151064000Y-132554000D01*
X157160000Y-132046000D02*
X157160000Y-132554000D01*
X151064000Y-132046000D02*
X157160000Y-132046000D01*
X148524000Y-133570000D02*
X151064000Y-133570000D01*
X148524000Y-131030000D02*
X148524000Y-133570000D01*
X148524000Y-131030000D02*
X151064000Y-131030000D01*
X148524000Y-136110000D02*
X151064000Y-136110000D01*
X148524000Y-136110000D02*
X148524000Y-138650000D01*
X151064000Y-137126000D02*
X157160000Y-137126000D01*
X157160000Y-137126000D02*
X157160000Y-137634000D01*
X157160000Y-137634000D02*
X151064000Y-137634000D01*
X151064000Y-138650000D02*
X151064000Y-136110000D01*
X151064000Y-136110000D02*
X151064000Y-133570000D01*
X157160000Y-135094000D02*
X151064000Y-135094000D01*
X157160000Y-134586000D02*
X157160000Y-135094000D01*
X151064000Y-134586000D02*
X157160000Y-134586000D01*
X148524000Y-136110000D02*
X151064000Y-136110000D01*
X148524000Y-133570000D02*
X148524000Y-136110000D01*
X148524000Y-133570000D02*
X151064000Y-133570000D01*
X148524000Y-138650000D02*
X151064000Y-138650000D01*
X121650000Y-138130000D02*
X116570000Y-138130000D01*
X113750000Y-137850000D02*
X115300000Y-137850000D01*
X114030000Y-140670000D02*
X116570000Y-140670000D01*
X116570000Y-140670000D02*
X116570000Y-138130000D01*
X121650000Y-138130000D02*
X121650000Y-143210000D01*
X121650000Y-143210000D02*
X116570000Y-143210000D01*
X113750000Y-137850000D02*
X113750000Y-139400000D01*
X114030000Y-143210000D02*
X114030000Y-140670000D01*
X116570000Y-143210000D02*
X114030000Y-143210000D01*
X139600000Y-121450000D02*
X139600000Y-128150000D01*
X139600000Y-128150000D02*
X135800000Y-128150000D01*
X135800000Y-128150000D02*
X135800000Y-121450000D01*
X135750000Y-121450000D02*
X139600000Y-121450000D01*
X124300000Y-131730000D02*
X124300000Y-128330000D01*
X124297056Y-131727056D02*
G75*
G02X120200000Y-130030000I-1697056J1697056D01*
G01*
X124297056Y-128332944D02*
G75*
G03X120200000Y-130030000I-1697056J-1697056D01*
G01*
X107776000Y-133110000D02*
X105236000Y-133110000D01*
X105236000Y-130570000D02*
X105236000Y-133110000D01*
X99140000Y-131586000D02*
X105236000Y-131586000D01*
X99140000Y-132094000D02*
X99140000Y-131586000D01*
X105236000Y-132094000D02*
X99140000Y-132094000D01*
X107776000Y-130570000D02*
X105236000Y-130570000D01*
X107776000Y-133110000D02*
X107776000Y-130570000D01*
X107776000Y-133110000D02*
X105236000Y-133110000D01*
X107776000Y-132094000D02*
X108157000Y-132094000D01*
X107776000Y-131586000D02*
X108157000Y-131586000D01*
X110600000Y-143550000D02*
X110600000Y-142000000D01*
X109300000Y-143550000D02*
X110600000Y-143550000D01*
X105109000Y-142127000D02*
X99267000Y-142127000D01*
X99267000Y-142127000D02*
X99267000Y-141873000D01*
X99267000Y-141873000D02*
X105109000Y-141873000D01*
X105109000Y-141873000D02*
X105109000Y-142000000D01*
X105109000Y-142000000D02*
X99267000Y-142000000D01*
X107776000Y-142254000D02*
X108157000Y-142254000D01*
X107776000Y-141746000D02*
X108157000Y-141746000D01*
X107776000Y-139714000D02*
X108157000Y-139714000D01*
X107776000Y-139206000D02*
X108157000Y-139206000D01*
X107776000Y-137174000D02*
X108157000Y-137174000D01*
X107776000Y-136666000D02*
X108157000Y-136666000D01*
X107776000Y-134126000D02*
X108157000Y-134126000D01*
X107776000Y-134634000D02*
X108157000Y-134634000D01*
X107776000Y-143270000D02*
X105236000Y-143270000D01*
X107776000Y-140730000D02*
X105236000Y-140730000D01*
X107776000Y-140730000D02*
X107776000Y-138190000D01*
X107776000Y-138190000D02*
X105236000Y-138190000D01*
X105236000Y-139714000D02*
X99140000Y-139714000D01*
X99140000Y-139714000D02*
X99140000Y-139206000D01*
X99140000Y-139206000D02*
X105236000Y-139206000D01*
X105236000Y-138190000D02*
X105236000Y-140730000D01*
X105236000Y-140730000D02*
X105236000Y-143270000D01*
X99140000Y-141746000D02*
X105236000Y-141746000D01*
X99140000Y-142254000D02*
X99140000Y-141746000D01*
X105236000Y-142254000D02*
X99140000Y-142254000D01*
X107776000Y-140730000D02*
X105236000Y-140730000D01*
X107776000Y-143270000D02*
X107776000Y-140730000D01*
X107776000Y-135650000D02*
X105236000Y-135650000D01*
X107776000Y-135650000D02*
X107776000Y-133110000D01*
X107776000Y-133110000D02*
X105236000Y-133110000D01*
X105236000Y-134634000D02*
X99140000Y-134634000D01*
X99140000Y-134634000D02*
X99140000Y-134126000D01*
X99140000Y-134126000D02*
X105236000Y-134126000D01*
X105236000Y-133110000D02*
X105236000Y-135650000D01*
X105236000Y-135650000D02*
X105236000Y-138190000D01*
X99140000Y-136666000D02*
X105236000Y-136666000D01*
X99140000Y-137174000D02*
X99140000Y-136666000D01*
X105236000Y-137174000D02*
X99140000Y-137174000D01*
X107776000Y-135650000D02*
X105236000Y-135650000D01*
X107776000Y-138190000D02*
X107776000Y-135650000D01*
X107776000Y-138190000D02*
X105236000Y-138190000D01*
X126450420Y-141950420D02*
X126450420Y-142849580D01*
X126450420Y-142849580D02*
X126051640Y-142849580D01*
X126051640Y-141950420D02*
X126051640Y-142849580D01*
X126450420Y-141950420D02*
X126051640Y-141950420D01*
X127748360Y-141950420D02*
X127748360Y-142849580D01*
X127748360Y-142849580D02*
X127349580Y-142849580D01*
X127349580Y-141950420D02*
X127349580Y-142849580D01*
X127748360Y-141950420D02*
X127349580Y-141950420D01*
X126900000Y-141950420D02*
X126900000Y-142100280D01*
X126900000Y-142100280D02*
X126600280Y-142100280D01*
X126600280Y-141950420D02*
X126600280Y-142100280D01*
X126900000Y-141950420D02*
X126600280Y-141950420D01*
X126900000Y-142699720D02*
X126900000Y-142849580D01*
X126900000Y-142849580D02*
X126600280Y-142849580D01*
X126600280Y-142699720D02*
X126600280Y-142849580D01*
X126900000Y-142699720D02*
X126600280Y-142699720D01*
X126900000Y-142250140D02*
X126900000Y-142549860D01*
X126900000Y-142549860D02*
X126600280Y-142549860D01*
X126600280Y-142250140D02*
X126600280Y-142549860D01*
X126900000Y-142250140D02*
X126600280Y-142250140D01*
X126450420Y-142001220D02*
X127349580Y-142001220D01*
X126450420Y-142798780D02*
X127349580Y-142798780D01*
X129900000Y-141525000D02*
X130900000Y-141525000D01*
X130900000Y-142875000D02*
X129900000Y-142875000D01*
X119933334Y-121757143D02*
X119885715Y-121804762D01*
X119742858Y-121852381D01*
X119647620Y-121852381D01*
X119504762Y-121804762D01*
X119409524Y-121709524D01*
X119361905Y-121614286D01*
X119314286Y-121423810D01*
X119314286Y-121280952D01*
X119361905Y-121090476D01*
X119409524Y-120995238D01*
X119504762Y-120900000D01*
X119647620Y-120852381D01*
X119742858Y-120852381D01*
X119885715Y-120900000D01*
X119933334Y-120947619D01*
X120885715Y-121852381D02*
X120314286Y-121852381D01*
X120600000Y-121852381D02*
X120600000Y-120852381D01*
X120504762Y-120995238D01*
X120409524Y-121090476D01*
X120314286Y-121138095D01*
X130657143Y-123866666D02*
X130704762Y-123914285D01*
X130752381Y-124057142D01*
X130752381Y-124152380D01*
X130704762Y-124295238D01*
X130609524Y-124390476D01*
X130514286Y-124438095D01*
X130323810Y-124485714D01*
X130180952Y-124485714D01*
X129990476Y-124438095D01*
X129895238Y-124390476D01*
X129800000Y-124295238D01*
X129752381Y-124152380D01*
X129752381Y-124057142D01*
X129800000Y-123914285D01*
X129847619Y-123866666D01*
X129847619Y-123485714D02*
X129800000Y-123438095D01*
X129752381Y-123342857D01*
X129752381Y-123104761D01*
X129800000Y-123009523D01*
X129847619Y-122961904D01*
X129942857Y-122914285D01*
X130038095Y-122914285D01*
X130180952Y-122961904D01*
X130752381Y-123533333D01*
X130752381Y-122914285D01*
X126833334Y-126457143D02*
X126785715Y-126504762D01*
X126642858Y-126552381D01*
X126547620Y-126552381D01*
X126404762Y-126504762D01*
X126309524Y-126409524D01*
X126261905Y-126314286D01*
X126214286Y-126123810D01*
X126214286Y-125980952D01*
X126261905Y-125790476D01*
X126309524Y-125695238D01*
X126404762Y-125600000D01*
X126547620Y-125552381D01*
X126642858Y-125552381D01*
X126785715Y-125600000D01*
X126833334Y-125647619D01*
X127738096Y-125552381D02*
X127261905Y-125552381D01*
X127214286Y-126028571D01*
X127261905Y-125980952D01*
X127357143Y-125933333D01*
X127595239Y-125933333D01*
X127690477Y-125980952D01*
X127738096Y-126028571D01*
X127785715Y-126123810D01*
X127785715Y-126361905D01*
X127738096Y-126457143D01*
X127690477Y-126504762D01*
X127595239Y-126552381D01*
X127357143Y-126552381D01*
X127261905Y-126504762D01*
X127214286Y-126457143D01*
X149333334Y-129552381D02*
X149000000Y-129076190D01*
X148761905Y-129552381D02*
X148761905Y-128552381D01*
X149142858Y-128552381D01*
X149238096Y-128600000D01*
X149285715Y-128647619D01*
X149333334Y-128742857D01*
X149333334Y-128885714D01*
X149285715Y-128980952D01*
X149238096Y-129028571D01*
X149142858Y-129076190D01*
X148761905Y-129076190D01*
X149714286Y-128647619D02*
X149761905Y-128600000D01*
X149857143Y-128552381D01*
X150095239Y-128552381D01*
X150190477Y-128600000D01*
X150238096Y-128647619D01*
X150285715Y-128742857D01*
X150285715Y-128838095D01*
X150238096Y-128980952D01*
X149666667Y-129552381D01*
X150285715Y-129552381D01*
X125533334Y-133952381D02*
X125200000Y-133476190D01*
X124961905Y-133952381D02*
X124961905Y-132952381D01*
X125342858Y-132952381D01*
X125438096Y-133000000D01*
X125485715Y-133047619D01*
X125533334Y-133142857D01*
X125533334Y-133285714D01*
X125485715Y-133380952D01*
X125438096Y-133428571D01*
X125342858Y-133476190D01*
X124961905Y-133476190D01*
X125866667Y-132952381D02*
X126485715Y-132952381D01*
X126152381Y-133333333D01*
X126295239Y-133333333D01*
X126390477Y-133380952D01*
X126438096Y-133428571D01*
X126485715Y-133523810D01*
X126485715Y-133761905D01*
X126438096Y-133857143D01*
X126390477Y-133904762D01*
X126295239Y-133952381D01*
X126009524Y-133952381D01*
X125914286Y-133904762D01*
X125866667Y-133857143D01*
X124233334Y-135752381D02*
X123900000Y-135276190D01*
X123661905Y-135752381D02*
X123661905Y-134752381D01*
X124042858Y-134752381D01*
X124138096Y-134800000D01*
X124185715Y-134847619D01*
X124233334Y-134942857D01*
X124233334Y-135085714D01*
X124185715Y-135180952D01*
X124138096Y-135228571D01*
X124042858Y-135276190D01*
X123661905Y-135276190D01*
X125090477Y-135085714D02*
X125090477Y-135752381D01*
X124852381Y-134704762D02*
X124614286Y-135419048D01*
X125233334Y-135419048D01*
X137333334Y-144552381D02*
X137000000Y-144076190D01*
X136761905Y-144552381D02*
X136761905Y-143552381D01*
X137142858Y-143552381D01*
X137238096Y-143600000D01*
X137285715Y-143647619D01*
X137333334Y-143742857D01*
X137333334Y-143885714D01*
X137285715Y-143980952D01*
X137238096Y-144028571D01*
X137142858Y-144076190D01*
X136761905Y-144076190D01*
X137904762Y-143980952D02*
X137809524Y-143933333D01*
X137761905Y-143885714D01*
X137714286Y-143790476D01*
X137714286Y-143742857D01*
X137761905Y-143647619D01*
X137809524Y-143600000D01*
X137904762Y-143552381D01*
X138095239Y-143552381D01*
X138190477Y-143600000D01*
X138238096Y-143647619D01*
X138285715Y-143742857D01*
X138285715Y-143790476D01*
X138238096Y-143885714D01*
X138190477Y-143933333D01*
X138095239Y-143980952D01*
X137904762Y-143980952D01*
X137809524Y-144028571D01*
X137761905Y-144076190D01*
X137714286Y-144171429D01*
X137714286Y-144361905D01*
X137761905Y-144457143D01*
X137809524Y-144504762D01*
X137904762Y-144552381D01*
X138095239Y-144552381D01*
X138190477Y-144504762D01*
X138238096Y-144457143D01*
X138285715Y-144361905D01*
X138285715Y-144171429D01*
X138238096Y-144076190D01*
X138190477Y-144028571D01*
X138095239Y-143980952D01*
X144861905Y-126152381D02*
X144861905Y-125152381D01*
X145100000Y-125152381D01*
X145242858Y-125200000D01*
X145338096Y-125295238D01*
X145385715Y-125390476D01*
X145433334Y-125580952D01*
X145433334Y-125723810D01*
X145385715Y-125914286D01*
X145338096Y-126009524D01*
X145242858Y-126104762D01*
X145100000Y-126152381D01*
X144861905Y-126152381D01*
X145766667Y-125152381D02*
X146385715Y-125152381D01*
X146052381Y-125533333D01*
X146195239Y-125533333D01*
X146290477Y-125580952D01*
X146338096Y-125628571D01*
X146385715Y-125723810D01*
X146385715Y-125961905D01*
X146338096Y-126057143D01*
X146290477Y-126104762D01*
X146195239Y-126152381D01*
X145909524Y-126152381D01*
X145814286Y-126104762D01*
X145766667Y-126057143D01*
X141823810Y-134752381D02*
X141823810Y-133752381D01*
X142871429Y-134657143D02*
X142823810Y-134704762D01*
X142680953Y-134752381D01*
X142585715Y-134752381D01*
X142442857Y-134704762D01*
X142347619Y-134609524D01*
X142300000Y-134514286D01*
X142252381Y-134323810D01*
X142252381Y-134180952D01*
X142300000Y-133990476D01*
X142347619Y-133895238D01*
X142442857Y-133800000D01*
X142585715Y-133752381D01*
X142680953Y-133752381D01*
X142823810Y-133800000D01*
X142871429Y-133847619D01*
X143823810Y-134752381D02*
X143252381Y-134752381D01*
X143538095Y-134752381D02*
X143538095Y-133752381D01*
X143442857Y-133895238D01*
X143347619Y-133990476D01*
X143252381Y-134038095D01*
X105561905Y-122452381D02*
X105561905Y-121452381D01*
X105942858Y-121452381D01*
X106038096Y-121500000D01*
X106085715Y-121547619D01*
X106133334Y-121642857D01*
X106133334Y-121785714D01*
X106085715Y-121880952D01*
X106038096Y-121928571D01*
X105942858Y-121976190D01*
X105561905Y-121976190D01*
X106514286Y-121547619D02*
X106561905Y-121500000D01*
X106657143Y-121452381D01*
X106895239Y-121452381D01*
X106990477Y-121500000D01*
X107038096Y-121547619D01*
X107085715Y-121642857D01*
X107085715Y-121738095D01*
X107038096Y-121880952D01*
X106466667Y-122452381D01*
X107085715Y-122452381D01*
X141533334Y-144552381D02*
X141200000Y-144076190D01*
X140961905Y-144552381D02*
X140961905Y-143552381D01*
X141342858Y-143552381D01*
X141438096Y-143600000D01*
X141485715Y-143647619D01*
X141533334Y-143742857D01*
X141533334Y-143885714D01*
X141485715Y-143980952D01*
X141438096Y-144028571D01*
X141342858Y-144076190D01*
X140961905Y-144076190D01*
X142009524Y-144552381D02*
X142200000Y-144552381D01*
X142295239Y-144504762D01*
X142342858Y-144457143D01*
X142438096Y-144314286D01*
X142485715Y-144123810D01*
X142485715Y-143742857D01*
X142438096Y-143647619D01*
X142390477Y-143600000D01*
X142295239Y-143552381D01*
X142104762Y-143552381D01*
X142009524Y-143600000D01*
X141961905Y-143647619D01*
X141914286Y-143742857D01*
X141914286Y-143980952D01*
X141961905Y-144076190D01*
X142009524Y-144123810D01*
X142104762Y-144171429D01*
X142295239Y-144171429D01*
X142390477Y-144123810D01*
X142438096Y-144076190D01*
X142485715Y-143980952D01*
X126933334Y-123257143D02*
X126885715Y-123304762D01*
X126742858Y-123352381D01*
X126647620Y-123352381D01*
X126504762Y-123304762D01*
X126409524Y-123209524D01*
X126361905Y-123114286D01*
X126314286Y-122923810D01*
X126314286Y-122780952D01*
X126361905Y-122590476D01*
X126409524Y-122495238D01*
X126504762Y-122400000D01*
X126647620Y-122352381D01*
X126742858Y-122352381D01*
X126885715Y-122400000D01*
X126933334Y-122447619D01*
X127790477Y-122685714D02*
X127790477Y-123352381D01*
X127552381Y-122304762D02*
X127314286Y-123019048D01*
X127933334Y-123019048D01*
X126933334Y-124857143D02*
X126885715Y-124904762D01*
X126742858Y-124952381D01*
X126647620Y-124952381D01*
X126504762Y-124904762D01*
X126409524Y-124809524D01*
X126361905Y-124714286D01*
X126314286Y-124523810D01*
X126314286Y-124380952D01*
X126361905Y-124190476D01*
X126409524Y-124095238D01*
X126504762Y-124000000D01*
X126647620Y-123952381D01*
X126742858Y-123952381D01*
X126885715Y-124000000D01*
X126933334Y-124047619D01*
X127790477Y-123952381D02*
X127600000Y-123952381D01*
X127504762Y-124000000D01*
X127457143Y-124047619D01*
X127361905Y-124190476D01*
X127314286Y-124380952D01*
X127314286Y-124761905D01*
X127361905Y-124857143D01*
X127409524Y-124904762D01*
X127504762Y-124952381D01*
X127695239Y-124952381D01*
X127790477Y-124904762D01*
X127838096Y-124857143D01*
X127885715Y-124761905D01*
X127885715Y-124523810D01*
X127838096Y-124428571D01*
X127790477Y-124380952D01*
X127695239Y-124333333D01*
X127504762Y-124333333D01*
X127409524Y-124380952D01*
X127361905Y-124428571D01*
X127314286Y-124523810D01*
X117661905Y-131052381D02*
X117661905Y-130052381D01*
X117900000Y-130052381D01*
X118042858Y-130100000D01*
X118138096Y-130195238D01*
X118185715Y-130290476D01*
X118233334Y-130480952D01*
X118233334Y-130623810D01*
X118185715Y-130814286D01*
X118138096Y-130909524D01*
X118042858Y-131004762D01*
X117900000Y-131052381D01*
X117661905Y-131052381D01*
X119090477Y-130385714D02*
X119090477Y-131052381D01*
X118852381Y-130004762D02*
X118614286Y-130719048D01*
X119233334Y-130719048D01*
X117361905Y-122952381D02*
X117361905Y-121952381D01*
X117600000Y-121952381D01*
X117742858Y-122000000D01*
X117838096Y-122095238D01*
X117885715Y-122190476D01*
X117933334Y-122380952D01*
X117933334Y-122523810D01*
X117885715Y-122714286D01*
X117838096Y-122809524D01*
X117742858Y-122904762D01*
X117600000Y-122952381D01*
X117361905Y-122952381D01*
X118838096Y-121952381D02*
X118361905Y-121952381D01*
X118314286Y-122428571D01*
X118361905Y-122380952D01*
X118457143Y-122333333D01*
X118695239Y-122333333D01*
X118790477Y-122380952D01*
X118838096Y-122428571D01*
X118885715Y-122523810D01*
X118885715Y-122761905D01*
X118838096Y-122857143D01*
X118790477Y-122904762D01*
X118695239Y-122952381D01*
X118457143Y-122952381D01*
X118361905Y-122904762D01*
X118314286Y-122857143D01*
X117361905Y-125452381D02*
X117361905Y-124452381D01*
X117600000Y-124452381D01*
X117742858Y-124500000D01*
X117838096Y-124595238D01*
X117885715Y-124690476D01*
X117933334Y-124880952D01*
X117933334Y-125023810D01*
X117885715Y-125214286D01*
X117838096Y-125309524D01*
X117742858Y-125404762D01*
X117600000Y-125452381D01*
X117361905Y-125452381D01*
X118885715Y-125452381D02*
X118314286Y-125452381D01*
X118600000Y-125452381D02*
X118600000Y-124452381D01*
X118504762Y-124595238D01*
X118409524Y-124690476D01*
X118314286Y-124738095D01*
X117661905Y-128352381D02*
X117661905Y-127352381D01*
X117900000Y-127352381D01*
X118042858Y-127400000D01*
X118138096Y-127495238D01*
X118185715Y-127590476D01*
X118233334Y-127780952D01*
X118233334Y-127923810D01*
X118185715Y-128114286D01*
X118138096Y-128209524D01*
X118042858Y-128304762D01*
X117900000Y-128352381D01*
X117661905Y-128352381D01*
X118614286Y-127447619D02*
X118661905Y-127400000D01*
X118757143Y-127352381D01*
X118995239Y-127352381D01*
X119090477Y-127400000D01*
X119138096Y-127447619D01*
X119185715Y-127542857D01*
X119185715Y-127638095D01*
X119138096Y-127780952D01*
X118566667Y-128352381D01*
X119185715Y-128352381D01*
X142733334Y-136657143D02*
X142685715Y-136704762D01*
X142542858Y-136752381D01*
X142447620Y-136752381D01*
X142304762Y-136704762D01*
X142209524Y-136609524D01*
X142161905Y-136514286D01*
X142114286Y-136323810D01*
X142114286Y-136180952D01*
X142161905Y-135990476D01*
X142209524Y-135895238D01*
X142304762Y-135800000D01*
X142447620Y-135752381D01*
X142542858Y-135752381D01*
X142685715Y-135800000D01*
X142733334Y-135847619D01*
X143209524Y-136752381D02*
X143400000Y-136752381D01*
X143495239Y-136704762D01*
X143542858Y-136657143D01*
X143638096Y-136514286D01*
X143685715Y-136323810D01*
X143685715Y-135942857D01*
X143638096Y-135847619D01*
X143590477Y-135800000D01*
X143495239Y-135752381D01*
X143304762Y-135752381D01*
X143209524Y-135800000D01*
X143161905Y-135847619D01*
X143114286Y-135942857D01*
X143114286Y-136180952D01*
X143161905Y-136276190D01*
X143209524Y-136323810D01*
X143304762Y-136371429D01*
X143495239Y-136371429D01*
X143590477Y-136323810D01*
X143638096Y-136276190D01*
X143685715Y-136180952D01*
X152261905Y-130252381D02*
X152261905Y-129252381D01*
X152642858Y-129252381D01*
X152738096Y-129300000D01*
X152785715Y-129347619D01*
X152833334Y-129442857D01*
X152833334Y-129585714D01*
X152785715Y-129680952D01*
X152738096Y-129728571D01*
X152642858Y-129776190D01*
X152261905Y-129776190D01*
X153738096Y-129252381D02*
X153261905Y-129252381D01*
X153214286Y-129728571D01*
X153261905Y-129680952D01*
X153357143Y-129633333D01*
X153595239Y-129633333D01*
X153690477Y-129680952D01*
X153738096Y-129728571D01*
X153785715Y-129823810D01*
X153785715Y-130061905D01*
X153738096Y-130157143D01*
X153690477Y-130204762D01*
X153595239Y-130252381D01*
X153357143Y-130252381D01*
X153261905Y-130204762D01*
X153214286Y-130157143D01*
X113761905Y-137352381D02*
X113761905Y-136352381D01*
X114142858Y-136352381D01*
X114238096Y-136400000D01*
X114285715Y-136447619D01*
X114333334Y-136542857D01*
X114333334Y-136685714D01*
X114285715Y-136780952D01*
X114238096Y-136828571D01*
X114142858Y-136876190D01*
X113761905Y-136876190D01*
X115285715Y-137352381D02*
X114714286Y-137352381D01*
X115000000Y-137352381D02*
X115000000Y-136352381D01*
X114904762Y-136495238D01*
X114809524Y-136590476D01*
X114714286Y-136638095D01*
X136452381Y-125761905D02*
X137261905Y-125761905D01*
X137357143Y-125714286D01*
X137404762Y-125666667D01*
X137452381Y-125571429D01*
X137452381Y-125380952D01*
X137404762Y-125285714D01*
X137357143Y-125238095D01*
X137261905Y-125190476D01*
X136452381Y-125190476D01*
X137452381Y-124190476D02*
X137452381Y-124761905D01*
X137452381Y-124476191D02*
X136452381Y-124476191D01*
X136595238Y-124571429D01*
X136690476Y-124666667D01*
X136738095Y-124761905D01*
X120038095Y-132852381D02*
X120038095Y-133661905D01*
X120085714Y-133757143D01*
X120133333Y-133804762D01*
X120228571Y-133852381D01*
X120419048Y-133852381D01*
X120514286Y-133804762D01*
X120561905Y-133757143D01*
X120609524Y-133661905D01*
X120609524Y-132852381D01*
X121038095Y-132947619D02*
X121085714Y-132900000D01*
X121180952Y-132852381D01*
X121419048Y-132852381D01*
X121514286Y-132900000D01*
X121561905Y-132947619D01*
X121609524Y-133042857D01*
X121609524Y-133138095D01*
X121561905Y-133280952D01*
X120990476Y-133852381D01*
X121609524Y-133852381D01*
X105861905Y-142652381D02*
X105861905Y-141652381D01*
X106242858Y-141652381D01*
X106338096Y-141700000D01*
X106385715Y-141747619D01*
X106433334Y-141842857D01*
X106433334Y-141985714D01*
X106385715Y-142080952D01*
X106338096Y-142128571D01*
X106242858Y-142176190D01*
X105861905Y-142176190D01*
X107290477Y-141985714D02*
X107290477Y-142652381D01*
X107052381Y-141604762D02*
X106814286Y-142319048D01*
X107433334Y-142319048D01*
X126061905Y-144252381D02*
X126061905Y-143252381D01*
X126300000Y-143252381D01*
X126442858Y-143300000D01*
X126538096Y-143395238D01*
X126585715Y-143490476D01*
X126633334Y-143680952D01*
X126633334Y-143823810D01*
X126585715Y-144014286D01*
X126538096Y-144109524D01*
X126442858Y-144204762D01*
X126300000Y-144252381D01*
X126061905Y-144252381D01*
X127490477Y-143252381D02*
X127300000Y-143252381D01*
X127204762Y-143300000D01*
X127157143Y-143347619D01*
X127061905Y-143490476D01*
X127014286Y-143680952D01*
X127014286Y-144061905D01*
X127061905Y-144157143D01*
X127109524Y-144204762D01*
X127204762Y-144252381D01*
X127395239Y-144252381D01*
X127490477Y-144204762D01*
X127538096Y-144157143D01*
X127585715Y-144061905D01*
X127585715Y-143823810D01*
X127538096Y-143728571D01*
X127490477Y-143680952D01*
X127395239Y-143633333D01*
X127204762Y-143633333D01*
X127109524Y-143680952D01*
X127061905Y-143728571D01*
X127014286Y-143823810D01*
X129757143Y-144552381D02*
X129423809Y-144076190D01*
X129185714Y-144552381D02*
X129185714Y-143552381D01*
X129566667Y-143552381D01*
X129661905Y-143600000D01*
X129709524Y-143647619D01*
X129757143Y-143742857D01*
X129757143Y-143885714D01*
X129709524Y-143980952D01*
X129661905Y-144028571D01*
X129566667Y-144076190D01*
X129185714Y-144076190D01*
X130709524Y-144552381D02*
X130138095Y-144552381D01*
X130423809Y-144552381D02*
X130423809Y-143552381D01*
X130328571Y-143695238D01*
X130233333Y-143790476D01*
X130138095Y-143838095D01*
X131328571Y-143552381D02*
X131423810Y-143552381D01*
X131519048Y-143600000D01*
X131566667Y-143647619D01*
X131614286Y-143742857D01*
X131661905Y-143933333D01*
X131661905Y-144171429D01*
X131614286Y-144361905D01*
X131566667Y-144457143D01*
X131519048Y-144504762D01*
X131423810Y-144552381D01*
X131328571Y-144552381D01*
X131233333Y-144504762D01*
X131185714Y-144457143D01*
X131138095Y-144361905D01*
X131090476Y-144171429D01*
X131090476Y-143933333D01*
X131138095Y-143742857D01*
X131185714Y-143647619D01*
X131233333Y-143600000D01*
X131328571Y-143552381D01*
X145961905Y-121500000D02*
X145866667Y-121452381D01*
X145723810Y-121452381D01*
X145580952Y-121500000D01*
X145485714Y-121595238D01*
X145438095Y-121690476D01*
X145390476Y-121880952D01*
X145390476Y-122023810D01*
X145438095Y-122214286D01*
X145485714Y-122309524D01*
X145580952Y-122404762D01*
X145723810Y-122452381D01*
X145819048Y-122452381D01*
X145961905Y-122404762D01*
X146009524Y-122357143D01*
X146009524Y-122023810D01*
X145819048Y-122023810D01*
X146438095Y-122452381D02*
X146438095Y-121452381D01*
X147009524Y-122452381D01*
X147009524Y-121452381D01*
X147485714Y-122452381D02*
X147485714Y-121452381D01*
X147723809Y-121452381D01*
X147866667Y-121500000D01*
X147961905Y-121595238D01*
X148009524Y-121690476D01*
X148057143Y-121880952D01*
X148057143Y-122023810D01*
X148009524Y-122214286D01*
X147961905Y-122309524D01*
X147866667Y-122404762D01*
X147723809Y-122452381D01*
X147485714Y-122452381D01*
X149009524Y-122452381D02*
X148438095Y-122452381D01*
X148723809Y-122452381D02*
X148723809Y-121452381D01*
X148628571Y-121595238D01*
X148533333Y-121690476D01*
X148438095Y-121738095D01*
M02*
