G04 #@! TF.FileFunction,Legend,Top*
%FSLAX46Y46*%
G04 Gerber Fmt 4.6, Leading zero omitted, Abs format (unit mm)*
G04 Created by KiCad (PCBNEW 0.201507042246+5884~23~ubuntu14.04.1-product) date Wed 08 Jul 2015 01:45:12 PM CEST*
%MOMM*%
G01*
G04 APERTURE LIST*
%ADD10C,0.100000*%
%ADD11C,0.150000*%
G04 APERTURE END LIST*
D10*
D11*
X148150000Y-106450000D02*
X148450000Y-106450000D01*
X148450000Y-106450000D02*
X148450000Y-106750000D01*
X148150000Y-105450000D02*
X149850000Y-105450000D01*
X149850000Y-105450000D02*
X149850000Y-106750000D01*
X149850000Y-106750000D02*
X148200000Y-106750000D01*
X148200000Y-106750000D02*
X148150000Y-106750000D01*
X148150000Y-106750000D02*
X148150000Y-105450000D01*
X145500000Y-106750000D02*
X145500000Y-106050000D01*
X146700000Y-106050000D02*
X146700000Y-106750000D01*
D10*
X148719048Y-105826190D02*
X148719048Y-106230952D01*
X148742857Y-106278571D01*
X148766667Y-106302381D01*
X148814286Y-106326190D01*
X148909524Y-106326190D01*
X148957143Y-106302381D01*
X148980952Y-106278571D01*
X149004762Y-106230952D01*
X149004762Y-105826190D01*
X149504762Y-106326190D02*
X149219048Y-106326190D01*
X149361905Y-106326190D02*
X149361905Y-105826190D01*
X149314286Y-105897619D01*
X149266667Y-105945238D01*
X149219048Y-105969048D01*
X146016667Y-106578571D02*
X145992857Y-106602381D01*
X145921429Y-106626190D01*
X145873810Y-106626190D01*
X145802381Y-106602381D01*
X145754762Y-106554762D01*
X145730953Y-106507143D01*
X145707143Y-106411905D01*
X145707143Y-106340476D01*
X145730953Y-106245238D01*
X145754762Y-106197619D01*
X145802381Y-106150000D01*
X145873810Y-106126190D01*
X145921429Y-106126190D01*
X145992857Y-106150000D01*
X146016667Y-106173810D01*
X146492857Y-106626190D02*
X146207143Y-106626190D01*
X146350000Y-106626190D02*
X146350000Y-106126190D01*
X146302381Y-106197619D01*
X146254762Y-106245238D01*
X146207143Y-106269048D01*
X150297620Y-105826190D02*
X150297620Y-106183333D01*
X150273810Y-106254762D01*
X150226191Y-106302381D01*
X150154763Y-106326190D01*
X150107144Y-106326190D01*
X150535715Y-106326190D02*
X150535715Y-105826190D01*
X150702381Y-106183333D01*
X150869048Y-105826190D01*
X150869048Y-106326190D01*
X151107144Y-106326190D02*
X151107144Y-105826190D01*
X151297620Y-105826190D01*
X151345239Y-105850000D01*
X151369048Y-105873810D01*
X151392858Y-105921429D01*
X151392858Y-105992857D01*
X151369048Y-106040476D01*
X151345239Y-106064286D01*
X151297620Y-106088095D01*
X151107144Y-106088095D01*
X151869048Y-106326190D02*
X151583334Y-106326190D01*
X151726191Y-106326190D02*
X151726191Y-105826190D01*
X151678572Y-105897619D01*
X151630953Y-105945238D01*
X151583334Y-105969048D01*
X150297620Y-108026190D02*
X150297620Y-108383333D01*
X150273810Y-108454762D01*
X150226191Y-108502381D01*
X150154763Y-108526190D01*
X150107144Y-108526190D01*
X150535715Y-108526190D02*
X150535715Y-108026190D01*
X150702381Y-108383333D01*
X150869048Y-108026190D01*
X150869048Y-108526190D01*
X151107144Y-108526190D02*
X151107144Y-108026190D01*
X151297620Y-108026190D01*
X151345239Y-108050000D01*
X151369048Y-108073810D01*
X151392858Y-108121429D01*
X151392858Y-108192857D01*
X151369048Y-108240476D01*
X151345239Y-108264286D01*
X151297620Y-108288095D01*
X151107144Y-108288095D01*
X151583334Y-108073810D02*
X151607144Y-108050000D01*
X151654763Y-108026190D01*
X151773810Y-108026190D01*
X151821429Y-108050000D01*
X151845239Y-108073810D01*
X151869048Y-108121429D01*
X151869048Y-108169048D01*
X151845239Y-108240476D01*
X151559525Y-108526190D01*
X151869048Y-108526190D01*
X150097620Y-103526190D02*
X150097620Y-103883333D01*
X150073810Y-103954762D01*
X150026191Y-104002381D01*
X149954763Y-104026190D01*
X149907144Y-104026190D01*
X150335715Y-104026190D02*
X150335715Y-103526190D01*
X150502381Y-103883333D01*
X150669048Y-103526190D01*
X150669048Y-104026190D01*
X150907144Y-104026190D02*
X150907144Y-103526190D01*
X151097620Y-103526190D01*
X151145239Y-103550000D01*
X151169048Y-103573810D01*
X151192858Y-103621429D01*
X151192858Y-103692857D01*
X151169048Y-103740476D01*
X151145239Y-103764286D01*
X151097620Y-103788095D01*
X150907144Y-103788095D01*
X151359525Y-103526190D02*
X151669048Y-103526190D01*
X151502382Y-103716667D01*
X151573810Y-103716667D01*
X151621429Y-103740476D01*
X151645239Y-103764286D01*
X151669048Y-103811905D01*
X151669048Y-103930952D01*
X151645239Y-103978571D01*
X151621429Y-104002381D01*
X151573810Y-104026190D01*
X151430953Y-104026190D01*
X151383334Y-104002381D01*
X151359525Y-103978571D01*
X145697620Y-102926190D02*
X145697620Y-103283333D01*
X145673810Y-103354762D01*
X145626191Y-103402381D01*
X145554763Y-103426190D01*
X145507144Y-103426190D01*
X145935715Y-103426190D02*
X145935715Y-102926190D01*
X146102381Y-103283333D01*
X146269048Y-102926190D01*
X146269048Y-103426190D01*
X146507144Y-103426190D02*
X146507144Y-102926190D01*
X146697620Y-102926190D01*
X146745239Y-102950000D01*
X146769048Y-102973810D01*
X146792858Y-103021429D01*
X146792858Y-103092857D01*
X146769048Y-103140476D01*
X146745239Y-103164286D01*
X146697620Y-103188095D01*
X146507144Y-103188095D01*
X147221429Y-103092857D02*
X147221429Y-103426190D01*
X147102382Y-102902381D02*
X146983334Y-103259524D01*
X147292858Y-103259524D01*
X151083333Y-112476190D02*
X151083333Y-112238095D01*
X151226190Y-112523809D02*
X150726190Y-112357142D01*
X151226190Y-112190476D01*
X151226190Y-111785714D02*
X151226190Y-112023809D01*
X150726190Y-112023809D01*
X150964286Y-111619047D02*
X150964286Y-111452381D01*
X151226190Y-111380952D02*
X151226190Y-111619047D01*
X150726190Y-111619047D01*
X150726190Y-111380952D01*
X151226190Y-110880952D02*
X150988095Y-111047619D01*
X151226190Y-111166666D02*
X150726190Y-111166666D01*
X150726190Y-110976190D01*
X150750000Y-110928571D01*
X150773810Y-110904762D01*
X150821429Y-110880952D01*
X150892857Y-110880952D01*
X150940476Y-110904762D01*
X150964286Y-110928571D01*
X150988095Y-110976190D01*
X150988095Y-111166666D01*
X150726190Y-110738095D02*
X150726190Y-110452381D01*
X151226190Y-110595238D02*
X150726190Y-110595238D01*
X151226190Y-110023810D02*
X151226190Y-110309524D01*
X151226190Y-110166667D02*
X150726190Y-110166667D01*
X150797619Y-110214286D01*
X150845238Y-110261905D01*
X150869048Y-110309524D01*
X149550000Y-111669048D02*
X149526190Y-111716667D01*
X149526190Y-111788095D01*
X149550000Y-111859524D01*
X149597619Y-111907143D01*
X149645238Y-111930952D01*
X149740476Y-111954762D01*
X149811905Y-111954762D01*
X149907143Y-111930952D01*
X149954762Y-111907143D01*
X150002381Y-111859524D01*
X150026190Y-111788095D01*
X150026190Y-111740476D01*
X150002381Y-111669048D01*
X149978571Y-111645238D01*
X149811905Y-111645238D01*
X149811905Y-111740476D01*
X150026190Y-111430952D02*
X149526190Y-111430952D01*
X150026190Y-111145238D01*
X149526190Y-111145238D01*
X150026190Y-110907142D02*
X149526190Y-110907142D01*
X149526190Y-110788095D01*
X149550000Y-110716666D01*
X149597619Y-110669047D01*
X149645238Y-110645238D01*
X149740476Y-110621428D01*
X149811905Y-110621428D01*
X149907143Y-110645238D01*
X149954762Y-110669047D01*
X150002381Y-110716666D01*
X150026190Y-110788095D01*
X150026190Y-110907142D01*
X150026190Y-110145238D02*
X150026190Y-110430952D01*
X150026190Y-110288095D02*
X149526190Y-110288095D01*
X149597619Y-110335714D01*
X149645238Y-110383333D01*
X149669048Y-110430952D01*
X148702381Y-111933333D02*
X148726190Y-111861904D01*
X148726190Y-111742857D01*
X148702381Y-111695238D01*
X148678571Y-111671428D01*
X148630952Y-111647619D01*
X148583333Y-111647619D01*
X148535714Y-111671428D01*
X148511905Y-111695238D01*
X148488095Y-111742857D01*
X148464286Y-111838095D01*
X148440476Y-111885714D01*
X148416667Y-111909523D01*
X148369048Y-111933333D01*
X148321429Y-111933333D01*
X148273810Y-111909523D01*
X148250000Y-111885714D01*
X148226190Y-111838095D01*
X148226190Y-111719047D01*
X148250000Y-111647619D01*
X148678571Y-111147619D02*
X148702381Y-111171429D01*
X148726190Y-111242857D01*
X148726190Y-111290476D01*
X148702381Y-111361905D01*
X148654762Y-111409524D01*
X148607143Y-111433333D01*
X148511905Y-111457143D01*
X148440476Y-111457143D01*
X148345238Y-111433333D01*
X148297619Y-111409524D01*
X148250000Y-111361905D01*
X148226190Y-111290476D01*
X148226190Y-111242857D01*
X148250000Y-111171429D01*
X148273810Y-111147619D01*
X148726190Y-110695238D02*
X148726190Y-110933333D01*
X148226190Y-110933333D01*
X148726190Y-110266667D02*
X148726190Y-110552381D01*
X148726190Y-110409524D02*
X148226190Y-110409524D01*
X148297619Y-110457143D01*
X148345238Y-110504762D01*
X148369048Y-110552381D01*
X147502381Y-111795237D02*
X147526190Y-111723808D01*
X147526190Y-111604761D01*
X147502381Y-111557142D01*
X147478571Y-111533332D01*
X147430952Y-111509523D01*
X147383333Y-111509523D01*
X147335714Y-111533332D01*
X147311905Y-111557142D01*
X147288095Y-111604761D01*
X147264286Y-111699999D01*
X147240476Y-111747618D01*
X147216667Y-111771427D01*
X147169048Y-111795237D01*
X147121429Y-111795237D01*
X147073810Y-111771427D01*
X147050000Y-111747618D01*
X147026190Y-111699999D01*
X147026190Y-111580951D01*
X147050000Y-111509523D01*
X147526190Y-111295237D02*
X147026190Y-111295237D01*
X147026190Y-111176190D01*
X147050000Y-111104761D01*
X147097619Y-111057142D01*
X147145238Y-111033333D01*
X147240476Y-111009523D01*
X147311905Y-111009523D01*
X147407143Y-111033333D01*
X147454762Y-111057142D01*
X147502381Y-111104761D01*
X147526190Y-111176190D01*
X147526190Y-111295237D01*
X147383333Y-110819047D02*
X147383333Y-110580952D01*
X147526190Y-110866666D02*
X147026190Y-110699999D01*
X147526190Y-110533333D01*
X147526190Y-110104762D02*
X147526190Y-110390476D01*
X147526190Y-110247619D02*
X147026190Y-110247619D01*
X147097619Y-110295238D01*
X147145238Y-110342857D01*
X147169048Y-110390476D01*
X145826190Y-111704761D02*
X146326190Y-111538094D01*
X145826190Y-111371428D01*
X146278571Y-110919047D02*
X146302381Y-110942857D01*
X146326190Y-111014285D01*
X146326190Y-111061904D01*
X146302381Y-111133333D01*
X146254762Y-111180952D01*
X146207143Y-111204761D01*
X146111905Y-111228571D01*
X146040476Y-111228571D01*
X145945238Y-111204761D01*
X145897619Y-111180952D01*
X145850000Y-111133333D01*
X145826190Y-111061904D01*
X145826190Y-111014285D01*
X145850000Y-110942857D01*
X145873810Y-110919047D01*
X146278571Y-110419047D02*
X146302381Y-110442857D01*
X146326190Y-110514285D01*
X146326190Y-110561904D01*
X146302381Y-110633333D01*
X146254762Y-110680952D01*
X146207143Y-110704761D01*
X146111905Y-110728571D01*
X146040476Y-110728571D01*
X145945238Y-110704761D01*
X145897619Y-110680952D01*
X145850000Y-110633333D01*
X145826190Y-110561904D01*
X145826190Y-110514285D01*
X145850000Y-110442857D01*
X145873810Y-110419047D01*
X146326190Y-109942857D02*
X146326190Y-110228571D01*
X146326190Y-110085714D02*
X145826190Y-110085714D01*
X145897619Y-110133333D01*
X145945238Y-110180952D01*
X145969048Y-110228571D01*
M02*
