G04 #@! TF.FileFunction,Copper,L2,Bot,Signal*
%FSLAX46Y46*%
G04 Gerber Fmt 4.6, Leading zero omitted, Abs format (unit mm)*
G04 Created by KiCad (PCBNEW 0.201507042246+5884~23~ubuntu14.04.1-product) date Wed 08 Jul 2015 01:45:12 PM CEST*
%MOMM*%
G01*
G04 APERTURE LIST*
%ADD10C,0.100000*%
%ADD11C,0.500000*%
%ADD12C,0.600000*%
%ADD13C,0.200000*%
%ADD14C,0.254000*%
G04 APERTURE END LIST*
D10*
D11*
X146100000Y-107300000D03*
D12*
X148030600Y-103800000D03*
X150150600Y-103800000D03*
X147216700Y-105450000D03*
X149140500Y-108436900D03*
X148327500Y-108275100D03*
X151454200Y-107396100D03*
X147830300Y-107183200D03*
X146996000Y-104600000D03*
D13*
X148030600Y-103800000D02*
X150150600Y-103800000D01*
X149140500Y-107373800D02*
X147216700Y-105450000D01*
X149140500Y-108436900D02*
X149140500Y-107373800D01*
X148327500Y-108490700D02*
X148327500Y-108275100D01*
X148876100Y-109039300D02*
X148327500Y-108490700D01*
X149811000Y-109039300D02*
X148876100Y-109039300D01*
X151454200Y-107396100D02*
X149811000Y-109039300D01*
X146616300Y-104979700D02*
X146996000Y-104600000D01*
X146616300Y-105969200D02*
X146616300Y-104979700D01*
X147830300Y-107183200D02*
X146616300Y-105969200D01*
D14*
G36*
X151515000Y-106461152D02*
X151269033Y-106460938D01*
X150925257Y-106602983D01*
X150662008Y-106865773D01*
X150519362Y-107209301D01*
X150519290Y-107291563D01*
X149506554Y-108304300D01*
X149262475Y-108304300D01*
X149262662Y-108089933D01*
X149120617Y-107746157D01*
X148857827Y-107482908D01*
X148738780Y-107433475D01*
X148765138Y-107369999D01*
X148765462Y-106998033D01*
X148623417Y-106654257D01*
X148360627Y-106391008D01*
X148017099Y-106248362D01*
X147934837Y-106248290D01*
X147351300Y-105664754D01*
X147351300Y-105464865D01*
X147524943Y-105393117D01*
X147788192Y-105130327D01*
X147930838Y-104786799D01*
X147930883Y-104734914D01*
X148215767Y-104735162D01*
X148559543Y-104593117D01*
X148617762Y-104535000D01*
X149563181Y-104535000D01*
X149620273Y-104592192D01*
X149963801Y-104734838D01*
X150335767Y-104735162D01*
X150679543Y-104593117D01*
X150942792Y-104330327D01*
X151085438Y-103986799D01*
X151085701Y-103685000D01*
X151515000Y-103685000D01*
X151515000Y-106461152D01*
X151515000Y-106461152D01*
G37*
X151515000Y-106461152D02*
X151269033Y-106460938D01*
X150925257Y-106602983D01*
X150662008Y-106865773D01*
X150519362Y-107209301D01*
X150519290Y-107291563D01*
X149506554Y-108304300D01*
X149262475Y-108304300D01*
X149262662Y-108089933D01*
X149120617Y-107746157D01*
X148857827Y-107482908D01*
X148738780Y-107433475D01*
X148765138Y-107369999D01*
X148765462Y-106998033D01*
X148623417Y-106654257D01*
X148360627Y-106391008D01*
X148017099Y-106248362D01*
X147934837Y-106248290D01*
X147351300Y-105664754D01*
X147351300Y-105464865D01*
X147524943Y-105393117D01*
X147788192Y-105130327D01*
X147930838Y-104786799D01*
X147930883Y-104734914D01*
X148215767Y-104735162D01*
X148559543Y-104593117D01*
X148617762Y-104535000D01*
X149563181Y-104535000D01*
X149620273Y-104592192D01*
X149963801Y-104734838D01*
X150335767Y-104735162D01*
X150679543Y-104593117D01*
X150942792Y-104330327D01*
X151085438Y-103986799D01*
X151085701Y-103685000D01*
X151515000Y-103685000D01*
X151515000Y-106461152D01*
M02*
